<?xml version="1.0" encoding="UTF-8"?><svg id="Capa_2" xmlns="http://www.w3.org/2000/svg" viewBox="0 0 92.46 91.43"><defs><style>.cls-1{fill:#fff;}</style></defs><g id="Capa_1-2"><g><path d="M51.53,72.59c-.97,.56-2,1.14-3.03,1.73-7.43,4.29-14.86,8.58-22.3,12.87-.2,.11-.38,.27-.59,.35-1.27,.48-1.99,1.24-1.75,2.74,.11,.66-.58,1.13-1.41,1.15-.97,.03-1.55-.36-1.6-1.13-.04-.81-.04-1.63-.01-2.44,.01-.52-.18-.83-.64-1.09-4.4-2.48-8.79-4.99-13.18-7.49-.81-.46-1.62-.91-2.56-1.45-.03,.45-.05,.72-.06,.98-.04,.99-.61,1.5-1.63,1.46-1-.04-1.46-.53-1.45-1.54,0-.41,0-.81,0-1.22,.04-.98-.16-1.84-.68-2.73-.44-.76-.59-1.78-.6-2.69-.03-14.28-.02-28.57-.02-42.85,0-3.76,0-7.52-.03-11.28-.01-1.62,.61-2.81,2.04-3.63C9.93,9.81,17.81,5.27,25.68,.73c1.73-1,3.42-.96,5.12,.03,7.55,4.38,15.12,8.74,22.65,13.16,.86,.5,1.45,.49,2.24-.07,.73-.52,1.56-.97,2.42-1.24,1.32-.42,2.6-.12,3.8,.58,8.59,4.97,17.19,9.95,25.8,14.89,1.86,1.07,2.74,2.6,2.73,4.74-.03,5.54,0,11.08-.02,16.62,0,.51,.06,.8,.69,.81,.77,0,1.29,.56,1.31,1.49,.06,2.11,.04,4.22,.02,6.33,0,.17-.22,.33-.33,.5-.09-.18-.26-.37-.26-.55-.02-1.88,0-3.76,0-5.64,0-.3,.06-.68-.1-.89-.21-.29-.6-.44-.91-.65-.13,.27-.38,.53-.38,.8-.03,2.9-.02,5.79-.02,8.69,0,7.45,0,14.89,0,22.34,0,1.97-.78,3.48-2.48,4.51-.56,.34-1.14,.67-1.67,1.07-.53,.4-.97,.36-1.53,.04-6.15-3.57-12.31-7.12-18.46-10.67-3.52-2.03-7.03-4.07-10.56-6.09-.83-.48-.91-.41-.92,.54-.01,1.44-1.19,2.14-2.45,1.43-.31-.17-.52-.52-.85-.87Zm-28.23,15.2c0-1.66,0-3.07,0-4.49,0-16.44,0-32.89,.02-49.33,0-.76-.24-1.18-.9-1.56-6.51-3.75-13.01-7.52-19.51-11.29-.73-.42-1.45-.86-2.29-1.36,0,.42,0,.69,0,.97,0,17.16,0,34.31-.02,51.47,0,1.92,.83,3.21,2.46,4.13,5.86,3.31,11.7,6.65,17.55,9.97,.83,.47,1.67,.93,2.69,1.5ZM53.83,14.92c-.29-.21-.48-.36-.68-.48-7.61-4.42-15.23-8.85-22.84-13.26-1.39-.8-2.81-.79-4.2,.01C18.16,5.76,10.23,10.34,2.3,14.94c-2.29,1.33-2.3,3.79,0,5.12,6.91,4.02,13.83,8.03,20.76,12.01,.28,.16,.82,.17,1.1,.01,9.58-5.49,19.13-11.02,28.69-16.54,.3-.17,.59-.37,.98-.63Zm32.09,72.76c.52-.32,.94-.59,1.38-.83,1.82-.99,2.55-2.5,2.55-4.57-.04-16.44-.03-32.89,0-49.33,0-2.05-.82-3.46-2.6-4.45-2.36-1.29-4.67-2.68-7-4.03-6.25-3.6-12.49-7.21-18.74-10.81-2-1.15-4.74-.58-6.1,1.3,.25,.17,.49,.34,.74,.49,3.32,1.92,6.64,3.83,9.97,5.74,6.31,3.64,12.62,7.3,18.93,10.93,.61,.35,.83,.77,.83,1.47-.02,17.77-.02,35.53-.02,53.3,0,.22,.04,.44,.08,.79ZM54.22,15.53c-.36,.18-.61,.28-.84,.41-1.61,.92-3.21,1.85-4.81,2.78-7.81,4.51-15.6,9.03-23.43,13.49-.94,.54-1.28,1.11-1.27,2.2,.04,17.43,.03,34.86,.03,52.3,0,.29,.04,.59,.07,1.01,.35-.17,.6-.28,.83-.41,.86-.48,1.72-.97,2.58-1.47,8.71-5.03,17.41-10.06,26.12-15.07,.62-.36,.81-.78,.81-1.46-.02-17.61-.01-35.22-.01-52.83,0-.27-.04-.53-.07-.94Zm19.06,23.59c0-.64,.05-1.04,0-1.43-.13-.97,.2-1.64,1.08-2.11,.35-.19,.59-.26,.95-.04,1.08,.66,2.18,1.29,3.3,1.9,.41,.22,.58,.49,.57,.96-.04,1.09,.01,2.19-.04,3.28-.03,.63,.14,1.04,.74,1.34,.79,.4,1.53,.91,2.3,1.35,.29,.17,.61,.28,.97,.43,.04-.27,.07-.41,.07-.56,0-3.15,.02-6.3-.02-9.45,0-.3-.28-.7-.55-.88-.67-.46-1.41-.81-2.11-1.21-7.71-4.48-15.41-8.96-23.12-13.43-.22-.13-.46-.22-.75-.35v7.76l1.52-.91,.11,.19-3.43,2.34c.91,.55,1.64,1,2.39,1.43,.11,.07,.33,.1,.43,.03,.58-.38,1.16-.76,1.68-1.21,.55-.48,1.19-.5,1.65,.07,.21,.27,.36,.59,.54,.89l.1-.2c.49,.17,1.19,.2,1.42,.54,.4,.59,.68,.99,1.49,.87,.25-.04,.59,.39,.85,.65,.15,.15,.19,.4,.3,.64,.7-.31,1.3-.25,1.69,.4,.66,1.1,.28,2.02-.71,2.83,.72,.42,1.33,.84,1.99,1.14,.23,.1,.63,0,.87-.15,.89-.54,1.73-1.14,2.6-1.72,.12-.08,.27-.12,.41-.19l.08,.14-3.37,2.31,4.01,2.33Zm9.82,20.75c.06-.31,.12-.48,.12-.64,0-3.15,.01-6.3-.03-9.45,0-.32-.3-.75-.59-.92-3.22-1.93-6.46-3.81-9.69-5.72-5.2-3.06-10.4-6.13-15.6-9.19-.18-.1-.39-.15-.64-.24v8.18l1.53-.89,.1,.17-3.43,2.36,4.83,2.8c0-.68-.03-1.13,0-1.57,.06-.77-.05-1.65,.28-2.3,.55-1.09,.78-2.18,.69-3.36-.04-.53,.01-1.01,.7-1,.65,0,.78,.43,.75,.98-.06,1.18-.02,2.32,.71,3.35,.21,.3,.19,.78,.19,1.18,.03,1.35,.01,2.69,.03,4.04,0,.22,0,.55,.14,.64,.71,.48,1.47,.9,2.1,1.28,.35-.84,.51-1.6,.92-2.18,1.28-1.78,.65-1.48,2.65-.62,1.88,.81,2.61,2.03,2.21,3.98-.32,1.6,.27,2.67,1.82,3.22,.32,.11,.64,.23,.96,.34,.06-.34,.19-.68,.16-1.01-.11-1.48-.03-2.85,1.15-3.99,.41-.39,.68-.51,1.16-.22,.82,.5,1.66,.98,2.51,1.42,.5,.26,.68,.6,.67,1.15-.03,1.8-.02,3.61,0,5.41,0,.26,.05,.65,.22,.75,1.07,.69,2.19,1.32,3.37,2.02Zm2.13,27.91c0-.7,0-1.19,0-1.69,0-17.35,0-34.71,.03-52.06,0-.82-.27-1.26-.98-1.67-9.42-5.41-18.82-10.85-28.23-16.28-.32-.18-.66-.34-1.12-.57v12.19c1.01-.25,1.26-.53,1.26-1.39,0-2.39,0-4.78,0-7.17,0-.27,.02-.53,.04-.94,.37,.16,.63,.24,.85,.37,8.63,5,17.26,10.01,25.89,15,.51,.29,.69,.62,.69,1.21-.02,4.85-.01,9.71-.01,14.56,0,11.61,0,23.22,0,34.84,0,1.04-.13,1.13-.92,.67-4.09-2.36-8.17-4.73-12.26-7.09-4.51-2.6-9.01-5.2-13.53-7.78-.57-.33-.84-.69-.81-1.38,.06-1.47,.03-2.95,.02-4.42,0-.84-.23-1.07-1.25-1.25-.02,.27-.06,.54-.06,.8,0,1.83,.03,3.66-.02,5.49-.02,.75,.22,1.19,.89,1.57,8.7,4.99,17.37,10.01,26.06,15.02,1.09,.63,2.19,1.25,3.46,1.97Zm-25.69-27.42l.28-.09c0-.57-.02-1.14,0-1.7,.03-.63,.14-1.25,.87-1.45,1.28-.36,2.11,.25,2.15,1.58,.03,.99,0,1.98,.03,2.97,0,.22,0,.55,.13,.64,.99,.63,2.01,1.2,3.2,1.9,0-.81-.01-1.39,0-1.97,.03-1.06,.55-1.59,1.53-1.58,.98,.01,1.45,.54,1.45,1.64,0,.61,.1,1.24,0,1.82-.27,1.46,.39,2.26,1.67,2.79,.71,.29,1.35,.74,2.03,1.12,.1-.17,.17-.23,.17-.3,.02-.53,.03-1.07,.03-1.6,.01-1,1.29-1.76,2.17-1.28,1,.55,1.96,1.17,2.98,1.69,.61,.31,.88,.72,.79,1.38-.03,.22,0,.46,0,.69,.02,.98-.26,2.15,.17,2.9,.43,.75,1.58,1.1,2.43,1.6,.47,.28,.95,.52,1.48,.8,.06-.21,.12-.3,.12-.39,0-2.72,.02-5.44-.01-8.15,0-.24-.25-.56-.47-.69-8.4-4.87-16.8-9.73-25.21-14.58-.25-.14-.52-.24-.83-.38v6.3l1.49-.88,.11,.17-3.43,2.33,4.69,2.72Zm23.5,24.11c.09-.18,.15-.24,.15-.31,.01-1.58,.04-3.15,0-4.73,0-.23-.27-.52-.5-.65-2.14-1.26-4.3-2.5-6.45-3.74-6.25-3.62-12.51-7.25-18.76-10.87-.24-.14-.52-.23-.9-.39,0,1.67,.03,3.19-.01,4.71-.02,.57,.22,.88,.68,1.15,7.81,4.5,15.62,9,23.43,13.5,.78,.45,1.57,.88,2.37,1.33Zm.18-5.75c0-1.38-.02-2.52,0-3.66,.01-.52-.17-.83-.63-1.09-2.89-1.64-5.76-3.32-8.64-4.98-6.17-3.57-12.34-7.13-18.51-10.69-.18-.1-.38-.17-.69-.3,0,1.41-.02,2.67,.02,3.94,0,.22,.25,.5,.46,.62,2.67,1.57,5.35,3.11,8.03,4.66,5.8,3.35,11.59,6.7,17.39,10.04,.78,.45,1.57,.89,2.55,1.45Zm-28.46-34.89c0,.84,.09,1.47-.02,2.08-.31,1.73,.47,2.61,1.97,3.46,8.57,4.84,17.06,9.81,25.57,14.74,.25,.14,.53,.23,.92,.39,0-1.31-.02-2.47,0-3.64,.01-.47-.15-.74-.56-.97-1.68-.94-3.34-1.93-5.01-2.88-.2-.11-.43-.16-.81-.3v2.5h-.21c0-.68,0-1.35,0-2.02,0-.87-.23-1.12-1.21-1.24l-.13,1.21c-.16-.09-.2-.18-.19-.26,.23-1.09-.37-1.6-1.25-2.1-5.68-3.24-11.33-6.54-17-9.81-.62-.36-1.26-.69-2.1-1.15Zm.34-15.07l-.26,.12c0,.88,.02,1.76,0,2.63-.02,.5,.17,.78,.6,1.03,3.22,1.88,6.42,3.79,9.63,5.68,1.19,.7,2.4,1.38,3.72,2.14,.05-.38,.1-.64,.11-.9,.02-.61-.02-1.22,.02-1.83,.04-.52-.13-.84-.6-1.1-3.33-1.94-6.65-3.9-9.98-5.85-1.09-.64-2.17-1.28-3.26-1.92Zm28.11,20.08c0-1.11-.02-2.01,0-2.91,.02-.51-.19-.77-.61-1.02-4.05-2.36-8.09-4.75-12.13-7.12-.38-.22-.77-.41-1.34-.72,0,1.01,.04,1.82-.01,2.62-.04,.64,.18,1.02,.74,1.34,3.94,2.29,7.87,4.61,11.81,6.92,.45,.26,.9,.52,1.54,.88Zm-28.37-5.81c.91-.34,1.4-.69,1.37-1.63-.07-2.03-.02-4.06-.03-6.08,0-.53,0-1.07,0-1.6-.02-.66-.59-.74-1.02-.97-.11,.29-.3,.58-.3,.87-.02,2.79-.02,5.58-.02,8.37,0,.3,0,.6,0,1.03Zm24.27,14.34v-6.08c-.77,.78-2.1,.6-2.18,1.78-.23,3.22-.09,3.42,2.18,4.3Zm-24.19-.33c1-.24,1.26-.53,1.27-1.38,.01-1.83,0-3.66,0-5.49,0-.96-.19-1.18-1.27-1.38v8.24Zm6.83-16.78l.16-.05c0-.28,.06-.58-.02-.83-.06-.19-.29-.45-.45-.46-.16,0-.5,.28-.49,.41,.16,1.36-.4,2.5-.9,3.7-.15,.37-.03,1.1,.25,1.36,.54,.51,1.31,.43,2.01,.15,.57-.23,.49-.74,.43-1.17-.06-.44-.23-.86-.37-1.29-.2-.61-.41-1.21-.62-1.81Zm15.54,30.33c0-.72-.04-1.2,.01-1.66,.07-.59-.16-.94-.67-1.21-.85-.44-1.67-.95-2.5-1.42-.22-.12-.47-.2-.83-.35,0,.73-.02,1.31,.01,1.88,.01,.2,.1,.49,.26,.59,1.16,.7,2.34,1.36,3.73,2.17Zm-3.58-33.79c-.42,2.01-.29,2.33,1.26,3.27,.32,.2,.66,.38,.99,.57,.42,.24,.85,.49,1.42,.82,0-.88,.02-1.56-.01-2.23,0-.15-.13-.35-.25-.43-1.1-.67-2.21-1.31-3.4-2Zm2.64,19.15l.22-.14c0-.98,0-1.96,0-2.94,0-.11-.08-.27-.17-.32-.63-.39-1.28-.76-2.11-1.25,0,1.22,0,2.22,0,3.22,0,.1,.1,.25,.2,.3,.61,.38,1.24,.75,1.86,1.12Zm-9.72,6.17c-.45,1.95,.4,3.26,2.22,3.4v-3.52l-2.22,.13Zm-6.28-3.65c.01,.1,.06,.25,.03,.37-.06,.21-.23,.41-.24,.62-.05,1.16,1.09,2.29,2.31,2.36v-3.45l-2.1,.09Zm10.38-9.76c-1.91,.64-2.34,1.09-2.22,2.28,.06,.56,1.19,1.32,2.22,1.46v-3.74Zm5.14,.46c-.14,.09-.29,.14-.38,.24-.31,.37-.64,.73-.87,1.15-.08,.15,.04,.54,.19,.66,.42,.32,.9,.58,1.38,.79,.2,.09,.61,.08,.69-.04,.35-.52,.61-1.11,.9-1.67,0,0-.03-.04-.05-.05-.61-.36-1.22-.71-1.86-1.08Zm-6.32-1.49c-1.66-1.56-2.24-1.51-3.43,.24-.03,.04-.03,.09-.1,.26l2.18,1.22c.38-.48,.77-.95,1.15-1.43,.06-.08,.11-.16,.19-.28Zm9.15-9.85c-1.09-.64-2.1-1.22-3.1-1.8-.79-.46-1.09-.4-1.77,.45,1.01,.59,2.03,1.14,2.99,1.78,.74,.49,1.25,.23,1.88-.43Zm-.24,29.18c-1.02-.59-1.99-1.13-2.94-1.7-.96-.58-1.01-.58-1.92,.31,.19,.13,.36,.27,.54,.37,.81,.47,1.62,.93,2.43,1.41,.91,.53,1.02,.52,1.89-.39Zm-57.02,20.6c0,.96-.07,1.83,.05,2.68,.03,.22,.65,.46,1.03,.51,.42,.05,.74-.21,.8-.72,.15-1.45-.18-1.93-1.87-2.47ZM1.92,76.53c0,.9-.06,1.73,.02,2.54,.05,.53,.57,.66,1,.54,.32-.1,.78-.39,.83-.66,.24-1.39-.23-1.99-1.84-2.42Zm58.2-31.57c-.23,.83-.15,1.37,.23,1.65,.52,.37,1.61,.48,1.99,0,.32-.4,.32-1.05,.48-1.65h-2.7Zm18.73-6.66c-.83,.28-1.26,.69-1.19,1.49,.03,.35,0,.71,.01,1.07,.01,.98,.14,1.13,1.18,1.38v-3.93Zm-.28,32.86v-3.53c-.69,.19-1.08,.51-1.01,1.24,.04,.4,.04,.81,0,1.22-.06,.69,.32,.94,1.01,1.08Zm-12.48-22.52l-.29,.13c.12,.44,.13,1,.4,1.31,.35,.39,.91,.62,1.41,.86,.13,.06,.36-.08,.55-.13-.11-.39-.09-.91-.34-1.13-.5-.43-1.14-.7-1.73-1.03Zm.49-13.83c.54-.17,.87-.63,.83-1.15-.04-.48-.31-.98-.62-1.36-.11-.13-.63,0-.93,.12-.11,.04-.2,.41-.14,.57,.23,.59,.54,1.16,.86,1.83Zm-12.28,36.45l-.25-.1c-.43,.24-.89,.44-1.29,.72-.19,.14-.41,.49-.35,.64,.09,.23,.4,.49,.64,.51,.34,.03,.91-.05,1.01-.25,.21-.45,.17-1,.24-1.52Zm10.02-38.35c.13-.02,.23-.05,.33-.05,.51-.04,.81-.25,.7-.81-.14-.7-.72-1.22-1.21-1.09-.52,.13-.67,.57-.38,1.01,.19,.29,.36,.6,.56,.95Zm-1.94-1.03c.32-.3,.81-.56,.8-.8-.01-.42-.26-.9-.55-1.23-.13-.14-.64-.02-.93,.09-.12,.05-.22,.45-.15,.6,.18,.4,.47,.76,.83,1.33Zm-2.21-1.39c1.09-.32,1.31-1.09,.57-1.79-.35-.33-.72-.32-1.09-.03-.36,.28-.32,.55-.03,.89,.22,.26,.36,.59,.56,.93Zm3.65,3.06c.26-.71,.04-1.17-.42-1.52-.43-.33-.86-.17-1.13,.21-.32,.45,.19,.53,.43,.69,.33,.22,.69,.39,1.12,.62Zm-2.07-1.19c.29-.77-.02-1.28-.47-1.57-.23-.15-.71,.09-1.07,.19-.02,0,0,.46,.11,.54,.42,.3,.9,.53,1.43,.84Zm-3.79-2.23l1.73,1.05c.1-.86,0-1.45-.66-1.71-.52-.21-.84,.12-1.07,.67Zm7.93,4.66c.22-.8,.06-1.37-.58-1.62-.24-.09-.63,.2-.95,.32,.11,.21,.18,.48,.35,.62,.33,.26,.73,.43,1.19,.69Zm-4.53,22.3l-1,.71c.29,.15,.58,.42,.87,.42,.32,0,.65-.24,.97-.38l-.84-.75Zm6.29,4.98l.97-.63c-.31-.16-.62-.45-.93-.45-.31,0-.63,.27-.95,.43l.91,.66Zm1.7-12.95l1.09-.96c-.11-.09-.31-.26-.32-.24-.31,.3-.6,.61-.89,.93,0,0,.02,.04,.13,.27Zm8.21,2.79l1.34-.81c-.65-.61-1-.42-1.34,.81Zm-16.09-4.57l1.26,.78-.08-1.2-1.18,.42Z"/><path class="cls-1" d="M23.3,87.79c-1.02-.57-1.86-1.03-2.69-1.5-5.85-3.32-11.69-6.66-17.55-9.97-1.63-.92-2.46-2.21-2.46-4.13,.02-17.16,.02-34.31,.02-51.47,0-.27,0-.55,0-.97,.84,.5,1.56,.94,2.29,1.36,6.5,3.77,13,7.55,19.51,11.29,.66,.38,.9,.8,.9,1.56-.02,16.44-.02,32.89-.02,49.33,0,1.42,0,2.83,0,4.49Zm-7.83-47.05c-.28-.26-.41-.43-.59-.53-2.37-1.41-4.75-2.82-7.13-4.21-.2-.12-.46-.11-.81-.19,.39,.8,7.62,5.02,8.53,4.93Zm-.36,3.65l.24-.43c-2.68-1.69-5.43-3.27-8.27-4.76-.03,.24-.01,.49,.11,.56,2.62,1.57,5.21,3.21,7.92,4.63Zm.19,3.26c-.4-.71-7.63-4.95-8.25-4.88,.16,.62,7.45,4.97,8.25,4.88Zm-8.16-1.54l-.17,.26c.14,.15,.26,.33,.43,.43,2.37,1.41,4.74,2.82,7.13,4.2,.19,.11,.48,.04,.73,.06-.13-.18-.23-.43-.41-.54-2.28-1.37-4.56-2.72-6.85-4.07-.26-.15-.56-.23-.85-.34Zm-.21,3.63c.2,.2,.36,.44,.59,.58,2.33,1.39,4.66,2.76,7,4.13,.2,.12,.47,.11,.81,.18-.39-.74-7.58-5.02-8.41-4.89Z"/><path class="cls-1" d="M53.83,14.92c-.4,.26-.68,.46-.98,.63-9.56,5.52-19.12,11.04-28.69,16.54-.28,.16-.81,.15-1.1-.01-6.93-3.98-13.85-7.99-20.76-12.01-2.29-1.33-2.29-3.79,0-5.12C10.23,10.34,18.16,5.76,26.1,1.18c1.39-.81,2.81-.82,4.2-.01,7.62,4.41,15.23,8.84,22.84,13.26,.21,.12,.39,.28,.68,.48Z"/><path class="cls-1" d="M85.92,87.68c-.03-.35-.08-.57-.08-.79,0-17.77,0-35.53,.02-53.3,0-.7-.22-1.12-.83-1.47-6.32-3.63-12.62-7.28-18.93-10.93-3.32-1.92-6.64-3.83-9.97-5.74-.26-.15-.5-.33-.74-.49,1.37-1.87,4.1-2.45,6.1-1.3,6.25,3.6,12.5,7.2,18.74,10.81,2.33,1.34,4.64,2.73,7,4.03,1.79,.98,2.61,2.39,2.6,4.45-.03,16.44-.03,32.89,0,49.33,0,2.07-.73,3.58-2.55,4.57-.44,.24-.86,.51-1.38,.83Z"/><path class="cls-1" d="M54.22,15.53c.03,.41,.07,.68,.07,.94,0,17.61,0,35.22,.01,52.83,0,.69-.19,1.11-.81,1.46-8.72,5.01-17.42,10.04-26.12,15.07-.86,.49-1.72,.98-2.58,1.47-.23,.13-.48,.24-.83,.41-.03-.42-.07-.71-.07-1.01,0-17.43,0-34.86-.03-52.3,0-1.08,.33-1.66,1.27-2.2,7.83-4.46,15.62-8.99,23.43-13.49,1.6-.93,3.21-1.86,4.81-2.78,.23-.13,.47-.23,.84-.41ZM25.31,85.41c1.39-.78,2.61-1.45,3.81-2.15,7.67-4.43,15.33-8.87,23.01-13.28,.61-.35,.84-.76,.84-1.45-.02-16.47-.02-32.93-.02-49.4,0-.31-.06-.63-.1-1.08-.34,.18-.56,.28-.77,.4-8.73,5.04-17.45,10.08-26.18,15.11-.51,.29-.68,.64-.68,1.22,.03,3.02,0,6.05,0,9.07,0,13.42,0,26.83,0,40.25,0,.37,.04,.74,.08,1.31Z"/><path class="cls-1" d="M73.28,39.11l-4.01-2.33,3.37-2.31-.08-.14c-.14,.06-.29,.1-.41,.19-.87,.57-1.72,1.17-2.6,1.72-.24,.15-.65,.26-.87,.15-.66-.3-1.27-.72-1.99-1.14,.99-.81,1.37-1.73,.71-2.83-.38-.65-.99-.71-1.69-.4-.11-.25-.16-.49-.3-.64-.25-.26-.6-.69-.85-.65-.81,.13-1.09-.28-1.49-.87-.23-.34-.93-.37-1.42-.54l-.1,.2c-.18-.3-.32-.62-.54-.89-.46-.58-1.1-.55-1.65-.07-.52,.45-1.11,.83-1.68,1.21-.1,.06-.31,.03-.43-.03-.74-.43-1.47-.88-2.39-1.43l3.43-2.34-.11-.19-1.52,.91v-7.76c.29,.13,.53,.22,.75,.35,7.71,4.48,15.41,8.96,23.12,13.43,.7,.41,1.44,.76,2.11,1.21,.27,.18,.54,.58,.55,.88,.04,3.15,.02,6.3,.02,9.45,0,.15-.04,.3-.07,.56-.36-.16-.68-.27-.97-.43-.77-.44-1.51-.95-2.3-1.35-.59-.3-.77-.71-.74-1.34,.05-1.09,0-2.19,.04-3.28,.02-.47-.16-.74-.57-.96-1.11-.61-2.21-1.24-3.3-1.9-.37-.22-.6-.15-.95,.04-.88,.47-1.21,1.14-1.08,2.11,.05,.39,0,.79,0,1.43Z"/><path class="cls-1" d="M83.1,59.87c-1.18-.7-2.3-1.33-3.37-2.02-.17-.11-.21-.49-.22-.75-.02-1.8-.02-3.61,0-5.41,0-.55-.18-.89-.67-1.15-.85-.44-1.69-.93-2.51-1.42-.48-.29-.75-.17-1.16,.22-1.18,1.13-1.26,2.51-1.15,3.99,.02,.33-.11,.67-.16,1.01-.32-.11-.64-.23-.96-.34-1.55-.54-2.14-1.62-1.82-3.22,.39-1.95-.33-3.17-2.21-3.98-1.99-.86-1.37-1.16-2.65,.62-.41,.58-.58,1.33-.92,2.18-.64-.38-1.39-.8-2.1-1.28-.13-.09-.14-.42-.14-.64-.02-1.35,0-2.69-.03-4.04,0-.4,.01-.88-.19-1.18-.72-1.03-.77-2.17-.71-3.35,.03-.55-.1-.98-.75-.98-.69,0-.74,.47-.7,1,.08,1.19-.15,2.27-.69,3.36-.32,.65-.22,1.52-.28,2.3-.03,.44,0,.89,0,1.57l-4.83-2.8,3.43-2.36-.1-.17-1.53,.89v-8.18c.25,.09,.46,.13,.64,.24,5.2,3.06,10.4,6.13,15.6,9.19,3.23,1.9,6.48,3.79,9.69,5.72,.29,.17,.58,.6,.59,.92,.05,3.15,.03,6.3,.03,9.45,0,.17-.06,.33-.12,.64Z"/><path class="cls-1" d="M85.23,87.77c-1.28-.73-2.37-1.35-3.46-1.97-8.68-5.01-17.36-10.03-26.06-15.02-.67-.38-.91-.82-.89-1.57,.05-1.83,.02-3.66,.02-5.49,0-.27,.04-.53,.06-.8,1.02,.18,1.25,.41,1.25,1.25,0,1.47,.04,2.95-.02,4.42-.03,.69,.23,1.05,.81,1.38,4.52,2.58,9.03,5.18,13.53,7.78,4.09,2.36,8.17,4.73,12.26,7.09,.79,.46,.92,.37,.92-.67,0-11.61,0-23.22,0-34.84,0-4.85-.01-9.71,.01-14.56,0-.58-.18-.91-.69-1.21-8.64-4.99-17.26-10-25.89-15-.23-.13-.48-.21-.85-.37-.02,.4-.04,.67-.04,.94,0,2.39,0,4.78,0,7.17,0,.85-.25,1.13-1.26,1.39V15.51c.46,.24,.8,.39,1.12,.57,9.41,5.43,18.81,10.87,28.23,16.28,.7,.4,.98,.84,.98,1.67-.03,17.35-.02,34.71-.03,52.06,0,.5,0,.99,0,1.69Z"/><path class="cls-1" d="M59.54,60.36l-4.69-2.72,3.43-2.33-.11-.17-1.49,.88v-6.3c.31,.14,.58,.23,.83,.38,8.41,4.85,16.81,9.71,25.21,14.58,.22,.13,.47,.45,.47,.69,.03,2.72,.02,5.44,.01,8.15,0,.09-.05,.18-.12,.39-.52-.28-1.01-.52-1.48-.8-.85-.5-2-.85-2.43-1.6-.43-.75-.14-1.92-.17-2.9,0-.23-.03-.46,0-.69,.09-.67-.18-1.07-.79-1.38-1.01-.52-1.98-1.14-2.98-1.69-.88-.49-2.16,.28-2.17,1.28,0,.53-.02,1.07-.03,1.6,0,.06-.07,.13-.17,.3-.68-.38-1.32-.83-2.03-1.12-1.28-.53-1.93-1.33-1.67-2.79,.11-.59,0-1.22,0-1.82,0-1.1-.47-1.63-1.45-1.64-.98-.01-1.5,.52-1.53,1.58-.02,.58,0,1.15,0,1.97-1.19-.69-2.21-1.27-3.2-1.9-.13-.08-.13-.42-.13-.64-.02-.99,0-1.98-.03-2.97-.04-1.33-.87-1.93-2.15-1.58-.72,.2-.84,.82-.87,1.45-.03,.57,0,1.13,0,1.7l-.28,.09Z"/><path class="cls-1" d="M83.03,84.47c-.8-.45-1.59-.88-2.37-1.33-7.81-4.5-15.61-9-23.43-13.5-.46-.27-.69-.58-.68-1.15,.04-1.52,.01-3.04,.01-4.71,.38,.16,.65,.24,.9,.39,6.26,3.62,12.51,7.25,18.76,10.87,2.15,1.25,4.31,2.48,6.45,3.74,.22,.13,.49,.43,.5,.65,.04,1.57,.01,3.15,0,4.73,0,.06-.06,.13-.15,.31Z"/><path class="cls-1" d="M83.21,78.72c-.99-.56-1.77-1-2.55-1.45-5.8-3.35-11.6-6.69-17.39-10.04-2.68-1.55-5.36-3.09-8.03-4.66-.21-.12-.46-.4-.46-.62-.04-1.26-.02-2.53-.02-3.94,.31,.13,.51,.19,.69,.3,6.17,3.56,12.34,7.13,18.51,10.69,2.88,1.66,5.75,3.33,8.64,4.98,.46,.26,.64,.57,.63,1.09-.03,1.14,0,2.27,0,3.66Z"/><path class="cls-1" d="M54.75,43.84c.83,.46,1.47,.79,2.1,1.15,5.66,3.27,11.32,6.57,17,9.81,.88,.5,1.48,1.01,1.25,2.1-.02,.08,.03,.17,.19,.26l.13-1.21c.97,.13,1.21,.38,1.21,1.24,0,.67,0,1.34,0,2.01h.21v-2.5c.37,.14,.61,.19,.81,.3,1.67,.96,3.33,1.94,5.01,2.88,.41,.23,.57,.5,.56,.97-.03,1.16,0,2.33,0,3.64-.39-.16-.68-.25-.92-.39-8.52-4.92-17.01-9.9-25.57-14.74-1.51-.85-2.28-1.73-1.97-3.46,.11-.6,.02-1.24,.02-2.08Z"/><path class="cls-1" d="M55.09,28.77c1.09,.64,2.17,1.28,3.26,1.92,3.32,1.95,6.64,3.92,9.98,5.85,.46,.27,.64,.58,.6,1.1-.05,.61,0,1.22-.02,1.83,0,.26-.06,.52-.11,.9-1.32-.76-2.53-1.44-3.72-2.14-3.21-1.89-6.41-3.8-9.63-5.68-.43-.25-.62-.53-.6-1.03,.03-.88,0-1.75,0-2.63l.26-.12Z"/><path class="cls-1" d="M83.21,48.85c-.64-.36-1.09-.62-1.54-.88-3.93-2.31-7.86-4.63-11.81-6.92-.56-.32-.78-.7-.74-1.34,.05-.8,.01-1.61,.01-2.62,.57,.3,.96,.5,1.34,.72,4.04,2.37,8.08,4.76,12.13,7.12,.42,.25,.63,.51,.61,1.02-.03,.9,0,1.8,0,2.91Z"/><path class="cls-1" d="M54.84,43.04c0-.44,0-.74,0-1.03,0-2.79,0-5.58,.02-8.37,0-.29,.2-.58,.3-.87,.43,.22,1.01,.31,1.02,.97,.01,.53,0,1.06,0,1.6,0,2.03-.04,4.06,.03,6.08,.03,.94-.46,1.29-1.37,1.63Z"/><path class="cls-1" d="M79.1,57.38c-2.27-.89-2.41-1.09-2.18-4.3,.08-1.18,1.41-1,2.18-1.78v6.08Z"/><path class="cls-1" d="M54.91,57.05v-8.24c1.08,.2,1.27,.41,1.27,1.38,0,1.83,0,3.66,0,5.49,0,.85-.27,1.14-1.27,1.38Z"/><path class="cls-1" d="M61.74,40.27c.21,.6,.42,1.21,.62,1.81,.14,.43,.31,.85,.37,1.29,.06,.43,.14,.95-.43,1.17-.7,.28-1.46,.35-2.01-.15-.28-.26-.4-.99-.25-1.36,.5-1.2,1.06-2.34,.9-3.7-.02-.13,.32-.42,.49-.41,.16,0,.39,.27,.45,.46,.08,.25,.02,.55,.02,.83l-.16,.05Z"/><path class="cls-1" d="M77.29,70.6c-1.39-.8-2.57-1.46-3.73-2.17-.15-.09-.24-.38-.26-.59-.03-.58-.01-1.15-.01-1.88,.36,.15,.61,.22,.83,.35,.84,.47,1.65,.97,2.5,1.42,.52,.27,.74,.62,.67,1.21-.05,.47-.01,.94-.01,1.66Z"/><path class="cls-1" d="M73.71,36.81c1.18,.69,2.3,1.33,3.4,2,.13,.08,.25,.28,.25,.43,.03,.68,.01,1.35,.01,2.23-.57-.33-1-.58-1.42-.82-.33-.19-.66-.37-.99-.57-1.54-.93-1.67-1.25-1.26-3.27Z"/><path class="cls-1" d="M76.35,55.96c-.62-.37-1.24-.74-1.86-1.12-.09-.06-.2-.2-.2-.3-.01-1,0-2,0-3.22,.83,.49,1.47,.86,2.11,1.25,.09,.06,.17,.21,.17,.32,.01,.98,0,1.96,0,2.94l-.22,.14Z"/><path class="cls-1" d="M66.62,62.13l2.22-.13v3.52c-1.82-.14-2.67-1.45-2.22-3.4Z"/><path class="cls-1" d="M60.35,58.48l2.1-.09v3.45c-1.22-.07-2.35-1.2-2.31-2.36,0-.21,.19-.41,.24-.62,.03-.12-.02-.27-.03-.37Z"/><path class="cls-1" d="M70.73,48.72v3.74c-1.03-.15-2.17-.91-2.22-1.46-.12-1.18,.31-1.64,2.22-2.28Z"/><path class="cls-1" d="M75.87,49.18c.64,.37,1.25,.72,1.86,1.08,.02,.01,.05,.05,.05,.05-.29,.56-.55,1.14-.9,1.67-.08,.12-.49,.13-.69,.04-.48-.21-.96-.48-1.38-.79-.15-.12-.27-.51-.19-.66,.23-.42,.56-.78,.87-1.15,.09-.1,.24-.15,.38-.24Z"/><path class="cls-1" d="M69.55,47.69c-.08,.12-.13,.21-.19,.28-.38,.48-.77,.96-1.15,1.43l-2.18-1.22c.06-.17,.07-.23,.1-.26,1.19-1.75,1.77-1.8,3.43-.24Z"/><path class="cls-1" d="M78.7,37.84c-.63,.66-1.14,.92-1.88,.43-.96-.64-1.98-1.19-2.99-1.78,.68-.85,.98-.92,1.77-.45,1,.58,2,1.17,3.1,1.8Z"/><path class="cls-1" d="M78.46,67.01c-.87,.91-.98,.93-1.89,.39-.81-.47-1.62-.94-2.43-1.41-.18-.11-.35-.24-.54-.37,.91-.89,.96-.89,1.92-.31,.95,.57,1.92,1.11,2.94,1.7Z"/><path class="cls-1" d="M21.44,87.61c1.69,.54,2.02,1.02,1.87,2.47-.05,.51-.38,.77-.8,.72-.37-.04-.99-.28-1.03-.51-.12-.85-.05-1.73-.05-2.68Z"/><path class="cls-1" d="M1.92,76.53c1.62,.43,2.08,1.03,1.84,2.42-.05,.27-.5,.56-.83,.66-.42,.13-.95,0-1-.54-.08-.81-.02-1.64-.02-2.54Z"/><path class="cls-1" d="M60.13,44.96h2.7c-.16,.6-.16,1.25-.48,1.65-.39,.48-1.48,.37-1.99,0-.39-.28-.46-.81-.23-1.65Z"/><path class="cls-1" d="M78.86,38.3v3.93c-1.04-.25-1.16-.4-1.18-1.38,0-.36,.02-.71-.01-1.07-.07-.8,.35-1.21,1.19-1.49Z"/><path class="cls-1" d="M78.58,71.15c-.69-.13-1.07-.39-1.01-1.08,.04-.4,.04-.81,0-1.22-.07-.73,.32-1.05,1.01-1.24v3.53Z"/><path class="cls-1" d="M66.1,48.63c.58,.33,1.23,.6,1.73,1.03,.25,.22,.24,.75,.34,1.13-.19,.05-.42,.19-.55,.13-.5-.24-1.06-.46-1.41-.86-.28-.31-.28-.86-.4-1.31l.29-.13Z"/><path class="cls-1" d="M66.59,34.8c-.32-.67-.62-1.24-.86-1.83-.06-.16,.03-.53,.14-.57,.3-.11,.82-.25,.93-.12,.3,.38,.58,.89,.62,1.36,.04,.52-.29,.99-.83,1.15Z"/><path class="cls-1" d="M54.32,71.25c-.07,.51-.03,1.07-.24,1.52-.1,.21-.67,.28-1.01,.25-.24-.02-.55-.28-.64-.51-.06-.15,.16-.51,.35-.64,.4-.29,.86-.49,1.29-.72l.25,.1Z"/><path class="cls-1" d="M64.34,32.9c-.21-.35-.37-.66-.56-.95-.29-.45-.14-.88,.38-1.01,.5-.13,1.08,.39,1.21,1.09,.11,.56-.19,.78-.7,.81-.1,0-.2,.03-.33,.05Z"/><path class="cls-1" d="M62.4,31.87c-.36-.56-.65-.92-.83-1.33-.07-.16,.03-.55,.15-.6,.29-.12,.8-.24,.93-.09,.29,.32,.54,.8,.55,1.23,0,.24-.48,.5-.8,.8Z"/><path class="cls-1" d="M60.19,30.48c-.2-.34-.33-.68-.56-.93-.29-.34-.33-.6,.03-.89,.37-.29,.75-.29,1.09,.03,.74,.7,.52,1.46-.57,1.79Z"/><path class="cls-1" d="M63.84,33.54c-.42-.23-.79-.4-1.12-.62-.24-.16-.75-.23-.43-.69,.27-.38,.7-.55,1.13-.21,.45,.35,.68,.81,.42,1.52Z"/><path class="cls-1" d="M61.77,32.35c-.54-.3-1.01-.54-1.43-.84-.11-.08-.13-.53-.11-.54,.36-.1,.83-.34,1.07-.19,.46,.29,.76,.79,.47,1.57Z"/><path class="cls-1" d="M57.98,30.12c.23-.55,.55-.88,1.07-.67,.65,.27,.76,.85,.66,1.71l-1.73-1.05Z"/><path class="cls-1" d="M65.91,34.78c-.46-.26-.85-.43-1.19-.69-.17-.13-.24-.41-.35-.62,.32-.12,.71-.41,.95-.32,.64,.25,.81,.83,.58,1.62Z"/><path class="cls-1" d="M61.38,57.08l.84,.75c-.32,.14-.65,.38-.97,.38-.29,0-.58-.27-.87-.42l1-.71Z"/><path class="cls-1" d="M67.66,62.06l-.91-.66c.32-.15,.63-.43,.95-.43,.31,0,.62,.29,.93,.45l-.97,.63Z"/><path class="cls-1" d="M69.37,49.1c-.11-.23-.14-.26-.13-.27,.29-.32,.58-.63,.89-.93,.02-.02,.21,.16,.32,.24l-1.09,.96Z"/><path class="cls-1" d="M77.58,51.89c.34-1.22,.69-1.41,1.34-.81l-1.34,.81Z"/><path class="cls-1" d="M61.48,47.32l1.18-.42,.08,1.2-1.26-.78Z"/><path d="M15.47,40.73c-.91,.08-8.13-4.13-8.53-4.93,.34,.07,.61,.07,.81,.19,2.39,1.39,4.76,2.8,7.13,4.21,.18,.1,.31,.28,.59,.53Z"/><path d="M15.1,44.38c-2.71-1.42-5.3-3.06-7.92-4.63-.12-.07-.13-.31-.11-.56,2.84,1.49,5.59,3.07,8.27,4.76l-.24,.43Z"/><path d="M15.3,47.63c-.8,.1-8.1-4.26-8.25-4.88,.63-.07,7.86,4.16,8.25,4.88Z"/><path d="M7.14,46.09c.28,.11,.59,.19,.85,.34,2.29,1.35,4.58,2.7,6.85,4.07,.18,.11,.28,.36,.41,.54-.25-.02-.54,.05-.73-.06-2.39-1.38-4.76-2.79-7.13-4.2-.17-.1-.29-.29-.43-.43l.17-.26Z"/><path d="M6.93,49.72c.83-.13,8.02,4.15,8.41,4.89-.34-.07-.61-.06-.81-.18-2.34-1.36-4.67-2.74-7-4.13-.23-.14-.4-.39-.59-.58Z"/><path d="M25.31,85.41c-.04-.58-.08-.94-.08-1.31,0-13.42,0-26.83,0-40.25,0-3.02,.02-6.05,0-9.07,0-.58,.17-.93,.68-1.22,8.73-5.03,17.46-10.07,26.18-15.11,.21-.12,.43-.22,.77-.4,.04,.45,.1,.76,.1,1.08,0,16.47,0,32.93,.02,49.4,0,.69-.23,1.1-.84,1.45-7.68,4.41-15.34,8.86-23.01,13.28-1.2,.69-2.42,1.36-3.81,2.15Zm25.73-41.21l-10.52,6.08v.26c.4,.15,.79,.36,1.21,.46,1.61,.36,3.2,.72,3.79,2.59,.06,.19,.3,.33,.48,.46,1.46,.96,2.92,1.93,4.4,2.86,.49,.31,.67,.68,.67,1.24-.01,3.28,0,6.55,.01,9.83,0,.47-.2,.72-.6,.95-2.16,1.23-4.3,2.49-6.45,3.74-5.89,3.4-11.78,6.79-17.66,10.18-.81,.47-.89,.7-.55,1.73,.27-.13,.55-.24,.8-.39,2.7-1.56,5.4-3.14,8.1-4.7,5.67-3.27,11.35-6.53,17.03-9.79,.54-.31,.79-.66,.79-1.32-.02-16.18-.01-32.37-.01-48.55,0-.3-.02-.59-.05-1.12l-10.04,5.8,8.59,5.59c-3.93,2.27-7.69,4.44-11.61,6.71,3.93,2.5,7.68,4.88,11.62,7.38Zm-12.71,31.34c.39-.18,.59-.26,.78-.37,3.69-2.13,7.37-4.27,11.08-6.38,.47-.27,.64-.55,.63-1.07-.02-3.02,0-6.05-.01-9.07,0-.24-.04-.48-.06-.81-.3,.13-.51,.2-.7,.31-3.74,2.16-7.48,4.31-11.19,6.5-.27,.16-.5,.64-.5,.97-.04,2.97-.02,5.94-.02,8.92,0,.27,0,.55,0,1.01Zm-12.62,7.29c.25-.1,.36-.14,.47-.2,3.74-2.15,7.46-4.32,11.21-6.46,.53-.3,.75-.65,.74-1.26-.03-3-.02-6-.03-9,0-.21-.06-.42-.11-.74-.34,.17-.56,.27-.77,.39-3.63,2.09-7.25,4.19-10.89,6.26-.51,.29-.7,.63-.7,1.21,.02,2.97,0,5.95,.01,8.92,0,.25,.03,.5,.06,.87Zm0-11.03c8.36-4.83,16.56-9.56,24.95-14.4l-3.46-2.23c.01,.85-.15,1.41-.94,1.35-.73-.05-.88,.31-.81,.92,.15,1.28-.51,2.08-1.59,2.59-2.07,.98-4.22,1.01-6.39,.38-1.61-.46-2.7-1.39-2.58-3.25,.03-.51-.22-.67-.69-.63-.54,.04-.88-.18-.92-.76-.04-.61,.39-.78,.86-.87,.88-.16,1.01-.41,.58-1.25-.14,.06-.28,.11-.41,.18-2.73,1.57-5.46,3.12-8.16,4.73-.27,.16-.48,.65-.48,.99-.03,3.79-.02,7.57-.01,11.36,0,.22,.03,.44,.06,.88Zm-.06-13.3c8.37-4.82,16.53-9.51,24.79-14.26-.24-.19-.38-.32-.54-.42-1.79-1.15-3.59-2.29-5.38-3.44-1.6-1.02-3.21-2.05-4.82-3.06-.31-.19-.68-.54-1.02,.1,.24,.17,.46,.32,.69,.47,2.27,1.44,4.54,2.88,6.81,4.33,.82,.52,.79,1.74-.05,2.22-2.77,1.59-5.55,3.16-8.32,4.76-.46,.26-.81,.26-1.26-.03-2.06-1.34-4.14-2.65-6.21-3.97-.78-.5-1.8-.82-1.63-2.21-.92,.53-1.67,.99-2.45,1.39-.47,.24-.63,.56-.63,1.09,.02,3.84,.01,7.67,.01,11.51,0,.43,0,.85,0,1.55Zm3.57-15.76c.43,.3,.68,.47,.93,.63,2.06,1.3,4.14,2.58,6.16,3.93,.62,.41,1.07,.45,1.71,.08,2.36-1.38,4.76-2.71,7.14-4.07,.34-.19,.65-.43,1.03-.68-.18-.16-.26-.25-.37-.31-2.35-1.5-4.7-3.01-7.07-4.48-.25-.15-.74-.12-1.02,.03-1.87,1.02-3.72,2.09-5.56,3.15-.94,.54-1.87,1.09-2.95,1.72Zm6.01,12.13c0,.9,.05,1.72-.01,2.54-.1,1.23,.5,1.97,1.54,2.44,2.17,.98,4.37,1,6.57,.14,.78-.31,1.65-.73,1.78-1.63,.16-1.1,.04-2.24,.04-3.44-3.35,2.04-6.57,2.11-9.91-.05Zm5.12-22.51c1.44-.01,2.84-.23,4.02-1.14,1.08-.83,1.09-1.88,0-2.71-.32-.24-.68-.45-1.05-.6-1.68-.67-3.42-.77-5.15-.33-.79,.2-1.59,.56-2.24,1.03-.99,.72-.92,1.79,.04,2.55,1.29,1.02,2.81,1.21,4.38,1.19Zm-.31,23.76c1.72,.04,3.22-.16,4.46-1.21,.9-.77,.87-1.66,.03-2.47-1.2-1.16-5.27-1.84-6.61-.7-.61,.52-1.38,.84-2.09,1.24-.61,.35-.78,.86-.37,1.44,.24,.34,.59,.64,.95,.86,1.16,.73,2.46,.9,3.63,.85Zm-11.19-22.29c-.58,.26-1.09,.42-1.53,.69-1.45,.89-1.48,2.21-.02,3.11,1.63,1,3.45,1.23,5.28,.85,1.01-.21,2.01-.65,2.91-1.18,.71-.41,.87-1.23,.54-1.8-.53-.91-1.38-1.34-2.44-1.57-.04,.58-.13,1.08-.1,1.57,.06,.81-.34,1.33-1.05,1.44-.81,.12-1.66,.1-2.47-.02-.69-.1-1.06-.6-1-1.38,.04-.49-.06-.99-.12-1.71Zm12.14-8.36c.32,.23,.56,.41,.81,.57,2.21,1.43,4.43,2.86,6.64,4.29,.9,.58,1.03,.57,1.97-.35-.13-.08-.27-.14-.39-.22-2.38-1.54-4.78-3.06-7.13-4.64-.75-.5-1.24-.26-1.89,.36Zm.06,9.83c-1.14-.62-2.27-1.23-3.38-1.84-.74-.41-1.51-.79-2.2-1.28-.69-.49-1.26-1.13-1.94-1.63-.77-.56-1.11-.47-1.77,.35,.15,.12,.29,.26,.46,.37,2.34,1.52,4.67,3.04,7.01,4.55,.72,.46,1.1,.37,1.82-.52Zm-10.85-3.55c.09,.1,.17,.25,.29,.31,1.11,.55,2.19,1.17,3.34,1.59,1.14,.42,2.07,.95,2.65,2.09,.62,1.22,2.02,1.49,2.94,.59-.22-.17-.41-.36-.64-.5-2.25-1.46-4.51-2.92-6.77-4.38-.83-.54-1.06-.52-1.81,.3Zm6.96,17.21c.36,0,.42,.02,.46,0,2.79-1.58,5.58-3.17,8.38-4.75,.53-.3,.6-.68,.37-1.18-.09,.02-.15,.01-.19,.04-2.84,1.6-5.69,3.2-8.51,4.84-.25,.15-.31,.62-.51,1.06Zm-11.47-12.02c0,.77-.29,1.38,.41,1.82,1.29,.81,2.55,1.66,3.83,2.48,.13,.08,.29,.23,.4,.2,.4-.11,.77-.29,1.16-.44-.18-.23-.32-.51-.54-.68-.66-.47-1.35-.91-2.03-1.35-1.02-.65-2.04-1.29-3.22-2.04Zm3.47,6.14c-.3,.67-.07,1.01,.36,1.29,2.35,1.49,4.7,2.98,7.06,4.46,.11,.07,.26,.08,.42,.12,.2-.56,.05-.89-.41-1.18-1.48-.92-2.94-1.88-4.42-2.81-.98-.62-1.96-1.22-3.01-1.87Zm16.04-12.03c-3.37,2.17-6.61,2.17-9.99,0,.31,1.07,.99,1.52,1.76,1.83,2.16,.88,4.35,.88,6.51-.02,.75-.31,1.44-.75,1.73-1.83Zm-19.42,7.83c-.27,1.29-.21,1.45,.67,2.02,.6,.38,1.19,.77,1.79,1.15,.8,.51,1.09,.46,1.8-.41l-4.26-2.76Zm5.5-5.68c-.56,.18-1.11,.27-1.59,.52-.53,.27-.5,.73-.02,1.07,.74,.54,2.35,.54,3.11,.01,.49-.34,.52-.79,0-1.07-.45-.24-.98-.36-1.5-.54Zm-1.9,1.67c-.26,1.2-.15,1.62,.69,1.77,.8,.15,1.69,.09,2.5-.08,.7-.15,.81-.78,.6-1.47-.47,.13-.9,.34-1.34,.35-.68,.02-1.16,.16-1.12,.97l-1.33-1.54Zm15.84-6.26c.52,1.91,.54,1.88,1.86,2.76,.46,.31,.79,.27,1.24,.01,.48-.27,.56-.46,.05-.77-.77-.48-1.52-.99-2.28-1.48-.28-.18-.57-.35-.86-.52Zm-16.64,14l-2.82-1.84c-.16,.84-.27,1.44,.49,1.92,1.22,.76,1.19,.8,2.34-.08Zm4.54-2.63c-.99-1.23-2.27-1.25-3.86-1.09,.8,.53,1.42,.93,2.03,1.34,.82,.55,1,.53,1.83-.25Zm10.03-12.48l.09-.21c-.64-.42-1.29-.83-1.93-1.26-.8-.53-1.09-.48-1.76,.36,1,1.09,2.43,.62,3.59,1.1Zm-3.82,6.43c.45,.31,.83,.58,1.22,.84q.98,.65,1.93-.15c-.62-.89-1.64-1.14-3.15-.69Zm6.3-3.18c-.03,.59-.84,1.11,.04,1.61,.74,.42,1.07-.18,1.67-.5l-1.7-1.11Zm-17.02,1.88c.73,1.01,1.57,.45,2.41,.32-.79-1.16-1.47-1.24-2.41-.32Zm4.64-2.94l-.02,.32,1.5,.96,.27-.14-.36-1.48-1.4,.34Zm-.84,9.17c.9,.96,1.41,1.18,2.26,.17-.66-.92-1.42-.28-2.26-.17Zm5.43-1.71c-.52-.16-.8-1.03-1.49-.49-.22,.17-.63,.61-.11,1.02,.49,.39,1.01,.24,1.6-.53Zm6.24-3.51c-.7-.81-1.29-.05-1.96-.05,.57,1.04,1.25,.84,1.96,.05Zm1.93,21.21c-.26,.45-.47,.67-.51,.93-.07,.42,.22,.64,.6,.51,.28-.1,.52-.35,.77-.54l-.86-.9Zm-11.68,.04l-.82,.84c.27,.19,.52,.46,.83,.56,.44,.14,.62-.2,.54-.56-.05-.24-.28-.44-.55-.83Zm-5.36-21.42c-.44-.64-.91-.81-1.49-.34-.15,.12-.25,.31-.37,.47,.24,.1,.49,.32,.7,.28,.38-.06,.74-.26,1.15-.42Zm7.28,4.72c-.57-.65-.94-.6-1.69,.2,.57,.61,.76,.59,1.69-.2Zm7.74-5.12c.59,.5,1.21,.32,1.56-.4-.57-.71-.86-.32-1.56,.4Zm-18.29,9.61v1.64l1.38-.77-1.38-.87Zm1.47-8.48c-.5-.71-.95-.43-1.33-.07-.1,.1-.08,.54,.03,.62,.7,.5,.84-.32,1.3-.55Zm10.96-6.97l1.52-.17c-.66-.63-.9-.6-1.52,.17Z"/><path class="cls-1" d="M51.04,44.19c-3.94-2.5-7.69-4.88-11.62-7.38,3.92-2.26,7.68-4.44,11.61-6.71l-8.59-5.59,10.04-5.8c.02,.53,.05,.82,.05,1.12,0,16.18,0,32.37,.01,48.55,0,.66-.25,1.01-.79,1.32-5.68,3.25-11.36,6.52-17.03,9.79-2.71,1.56-5.4,3.14-8.1,4.7-.25,.15-.53,.26-.8,.39-.34-1.04-.26-1.26,.55-1.73,5.89-3.4,11.78-6.79,17.66-10.18,2.15-1.24,4.29-2.51,6.45-3.74,.4-.23,.6-.47,.6-.95-.02-3.28-.02-6.55-.01-9.83,0-.57-.18-.93-.67-1.24-1.49-.93-2.94-1.9-4.4-2.86-.18-.12-.42-.27-.48-.46-.59-1.87-2.18-2.23-3.79-2.59-.42-.09-.81-.3-1.21-.46v-.26l10.52-6.08Zm-1.64-6.68c0-.85-.83-1.85-1.52-1.84-.6,0-1.37,.72-1.38,1.29-.02,.83,.78,1.84,1.47,1.86,.67,.02,1.44-.68,1.43-1.31Z"/><path class="cls-1" d="M38.33,75.53c0-.46,0-.74,0-1.01,0-2.97-.02-5.94,.02-8.92,0-.33,.23-.81,.5-.97,3.71-2.19,7.45-4.34,11.19-6.5,.19-.11,.4-.18,.7-.31,.03,.32,.06,.57,.06,.81,0,3.02,0,6.05,.01,9.07,0,.52-.16,.81-.63,1.07-3.7,2.11-7.39,4.25-11.08,6.38-.19,.11-.4,.19-.78,.37Zm3.84-11.79l.13,.22,5.09-2.93-.13-.23-5.08,2.94Z"/><path class="cls-1" d="M25.71,82.83c-.03-.37-.06-.62-.06-.87,0-2.97,.01-5.95-.01-8.92,0-.58,.18-.92,.7-1.21,3.64-2.07,7.26-4.17,10.89-6.26,.21-.12,.44-.22,.77-.39,.05,.32,.11,.53,.11,.74,0,3,0,6,.03,9,0,.61-.21,.96-.74,1.26-3.75,2.13-7.48,4.3-11.21,6.46-.1,.06-.22,.1-.47,.2Zm7.17-8.96c-.1-.09-.3-.42-.53-.44-.56-.05-1.26,.91-1.25,1.62,0,.37,.08,.73,.59,.7,.58-.04,1.2-.91,1.19-1.88Zm-3.74-2.59l.13,.23,5.26-3.05-.13-.22-5.27,3.04Zm4,.26l-.28-.14c-.49,.38-.87,.8-.73,1.48l.23,.12,.78-1.45Z"/><path class="cls-1" d="M25.72,71.8c-.03-.44-.06-.66-.06-.88,0-3.79-.02-7.57,.01-11.36,0-.34,.21-.83,.48-.99,2.7-1.61,5.44-3.16,8.16-4.73,.13-.07,.27-.12,.41-.18,.43,.85,.3,1.09-.58,1.25-.47,.09-.9,.26-.86,.87,.04,.58,.39,.8,.92,.76,.47-.04,.72,.12,.69,.63-.12,1.86,.97,2.79,2.58,3.25,2.17,.62,4.32,.6,6.39-.38,1.08-.51,1.74-1.31,1.59-2.59-.07-.61,.08-.97,.81-.92,.79,.06,.96-.5,.94-1.35l3.46,2.23c-8.38,4.84-16.58,9.57-24.95,14.4Zm1.3-8.86c0,.35,.02,.56,0,.76-.14,1.2,.3,1.81,1.47,2.14,.99,.28,2.12,.36,3.13,.19,1.6-.26,2.12-1.05,2.05-2.67-.03-.71-.24-1.41-.36-2.12-.03-.19-.05-.4-.03-.59,.07-.97-.3-1.51-1.24-1.67-1.47-.26-2.74,.22-3.9,1.1-1.01,.77-1.38,1.78-1.12,2.87Z"/><path class="cls-1" d="M25.66,58.5c0-.7,0-1.12,0-1.55,0-3.84,0-7.67-.01-11.51,0-.53,.16-.84,.63-1.09,.78-.4,1.53-.86,2.45-1.39-.17,1.4,.84,1.71,1.63,2.21,2.07,1.33,4.15,2.63,6.21,3.97,.44,.29,.8,.29,1.26,.03,2.77-1.6,5.55-3.17,8.32-4.76,.84-.48,.87-1.7,.05-2.22-2.27-1.45-4.54-2.88-6.81-4.33-.23-.15-.45-.3-.69-.47,.34-.63,.71-.29,1.02-.1,1.61,1.01,3.21,2.04,4.82,3.06,1.8,1.14,3.59,2.29,5.38,3.44,.16,.1,.3,.23,.54,.42-8.26,4.75-16.42,9.45-24.79,14.26Zm1.28-10.69h-.02c0,.2,0,.41,0,.61-.02,1.47,.76,2.06,2.19,1.56,.32-.11,.73-.5,.76-.8,.09-.96,.08-1.93,0-2.89-.08-.82-.59-1.14-1.52-1.12-.87,.02-1.29,.35-1.38,1.19-.05,.48,0,.96,0,1.45Zm6.42,2.01c0-.46,.03-.91,0-1.37-.06-.85-.49-1.25-1.36-1.32-.89-.06-1.4,.25-1.53,1.09-.12,.82-.12,1.66-.14,2.49-.02,1,.49,1.5,1.61,1.41,.93-.07,1.54-.23,1.42-1.4-.03-.3,0-.61,0-.91Z"/><path class="cls-1" d="M29.23,42.74c1.09-.63,2.01-1.18,2.95-1.72,1.85-1.06,3.69-2.13,5.56-3.15,.27-.15,.77-.18,1.02-.03,2.38,1.46,4.72,2.97,7.07,4.48,.1,.06,.18,.16,.37,.31-.38,.25-.69,.49-1.03,.68-2.38,1.36-4.78,2.68-7.14,4.07-.64,.37-1.09,.34-1.71-.08-2.03-1.35-4.11-2.62-6.16-3.93-.25-.16-.5-.34-.93-.63Zm11.35-2.04c-.23-.13-.36-.24-.52-.29-1.73-.55-3.46-.51-5.16,.06-.53,.18-1.03,.55-1.45,.94-.62,.56-.66,1.43-.1,2.05,.31,.35,.72,.65,1.15,.85,1.55,.74,3.2,.81,4.83,.42,.83-.2,1.61-.69,2.34-1.16,.29-.18,.38-.67,.56-1.02l-.17-.23h-3.56l-.04-.21,2.12-1.41Z"/><path class="cls-1" d="M35.24,54.87c3.34,2.17,6.57,2.1,9.91,.05,0,1.2,.12,2.34-.04,3.44-.13,.9-.99,1.32-1.78,1.63-2.2,.86-4.4,.84-6.57-.14-1.04-.47-1.64-1.22-1.54-2.44,.07-.82,.01-1.64,.01-2.54Z"/><path class="cls-1" d="M40.36,32.35c-1.57,.01-3.1-.18-4.38-1.19-.96-.76-1.03-1.83-.04-2.55,.66-.48,1.46-.84,2.24-1.03,1.73-.44,3.47-.34,5.15,.33,.37,.15,.74,.35,1.05,.6,1.08,.83,1.08,1.88,0,2.71-1.18,.9-2.58,1.13-4.02,1.14Z"/><path class="cls-1" d="M40.05,56.11c-1.17,.05-2.47-.12-3.63-.85-.36-.22-.7-.52-.95-.86-.41-.58-.24-1.09,.37-1.44,.7-.4,1.48-.72,2.09-1.24,1.34-1.14,5.41-.46,6.61,.7,.84,.81,.87,1.71-.03,2.47-1.24,1.05-2.73,1.25-4.46,1.21Zm.18-3.69c-.51,.05-1.02,.09-1.02,.81,0,.56,.42,.96,1.04,.93,.57-.03,.91-.29,.93-.95,.02-.71-.44-.75-.95-.79Z"/><path class="cls-1" d="M28.86,33.82c.06,.72,.16,1.22,.12,1.71-.07,.78,.31,1.28,1,1.38,.81,.12,1.66,.14,2.47,.02,.71-.11,1.11-.63,1.05-1.44-.03-.49,.06-1,.1-1.57,1.06,.24,1.92,.66,2.44,1.57,.33,.57,.17,1.38-.54,1.8-.9,.52-1.9,.96-2.91,1.18-1.83,.38-3.65,.16-5.28-.85-1.45-.9-1.43-2.22,.02-3.11,.44-.27,.94-.43,1.53-.69Z"/><path class="cls-1" d="M41,25.46c.65-.62,1.14-.86,1.89-.36,2.35,1.58,4.75,3.1,7.13,4.64,.13,.08,.26,.15,.39,.22-.94,.91-1.07,.93-1.97,.35-2.21-1.43-4.43-2.86-6.64-4.29-.25-.16-.49-.34-.81-.57Z"/><path class="cls-1" d="M41.06,35.3c-.72,.89-1.1,.98-1.82,.52-2.34-1.51-4.68-3.03-7.01-4.55-.16-.11-.31-.25-.46-.37,.66-.82,1-.92,1.77-.35,.68,.5,1.25,1.15,1.94,1.63,.69,.49,1.46,.87,2.2,1.28,1.11,.62,2.24,1.22,3.38,1.84Z"/><path class="cls-1" d="M30.21,31.75c.75-.81,.98-.84,1.81-.3,2.25,1.46,4.51,2.92,6.77,4.38,.22,.15,.42,.33,.64,.5-.92,.89-2.31,.63-2.94-.59-.58-1.14-1.51-1.67-2.65-2.09-1.15-.42-2.23-1.05-3.34-1.59-.12-.06-.2-.21-.29-.31Z"/><path class="cls-1" d="M37.17,48.96c.2-.44,.26-.91,.51-1.06,2.82-1.64,5.67-3.24,8.51-4.84,.04-.02,.1-.02,.19-.04,.23,.51,.15,.89-.37,1.18-2.8,1.58-5.59,3.17-8.38,4.75-.04,.02-.1,0-.46,0Z"/><path class="cls-1" d="M25.7,36.94c1.18,.75,2.21,1.39,3.22,2.04,.68,.44,1.37,.87,2.03,1.35,.23,.16,.36,.45,.54,.68-.38,.15-.76,.32-1.16,.44-.11,.03-.27-.11-.4-.2-1.28-.83-2.54-1.68-3.83-2.48-.7-.44-.4-1.05-.41-1.82Z"/><path class="cls-1" d="M29.17,43.08c1.05,.65,2.03,1.25,3.01,1.87,1.48,.93,2.94,1.89,4.42,2.81,.47,.29,.61,.62,.41,1.18-.16-.04-.31-.05-.42-.12-2.36-1.48-4.71-2.97-7.06-4.46-.43-.27-.66-.61-.36-1.29Z"/><path class="cls-1" d="M45.21,31.05c-.29,1.08-.98,1.52-1.73,1.83-2.16,.9-4.34,.89-6.51,.02-.77-.31-1.45-.77-1.76-1.83,3.38,2.16,6.62,2.16,9.99,0Z"/><path class="cls-1" d="M25.79,38.88l4.26,2.76c-.71,.87-1.01,.93-1.8,.41-.6-.39-1.19-.77-1.79-1.15-.88-.57-.94-.73-.67-2.02Z"/><path class="cls-1" d="M31.29,33.2c.52,.18,1.04,.29,1.5,.54,.52,.28,.49,.73,0,1.07-.76,.53-2.37,.53-3.11-.01-.48-.35-.5-.8,.02-1.07,.48-.25,1.03-.34,1.59-.52Z"/><path class="cls-1" d="M29.39,34.87l1.33,1.54c-.05-.81,.43-.95,1.12-.97,.43-.01,.86-.22,1.34-.35,.22,.69,.1,1.32-.6,1.47-.81,.17-1.69,.23-2.5,.08-.83-.16-.94-.57-.69-1.77Z"/><path class="cls-1" d="M45.23,28.61c.29,.17,.58,.34,.86,.52,.76,.49,1.51,1,2.28,1.48,.51,.31,.43,.5-.05,.77-.44,.25-.78,.29-1.24-.01-1.32-.88-1.34-.86-1.86-2.76Z"/><path class="cls-1" d="M28.59,42.61c-1.14,.88-1.12,.84-2.34,.08-.76-.48-.64-1.08-.49-1.92l2.82,1.84Z"/><path class="cls-1" d="M33.13,39.97c-.82,.78-1.01,.8-1.83,.25-.61-.41-1.23-.82-2.03-1.34,1.59-.16,2.87-.14,3.86,1.09Z"/><path class="cls-1" d="M43.17,27.49c-1.16-.48-2.59,0-3.59-1.1,.66-.84,.96-.89,1.76-.36,.64,.42,1.28,.84,1.93,1.26l-.09,.21Z"/><path class="cls-1" d="M39.34,33.93c1.5-.45,2.53-.2,3.15,.69q-.95,.8-1.93,.15c-.39-.26-.77-.53-1.22-.84Z"/><path class="cls-1" d="M45.65,30.75l1.7,1.11c-.6,.32-.93,.92-1.67,.5-.88-.5-.06-1.03-.04-1.61Z"/><path class="cls-1" d="M28.63,32.63c.94-.92,1.62-.84,2.41,.32-.84,.13-1.68,.69-2.41-.32Z"/><path class="cls-1" d="M33.27,29.69l1.4-.34,.36,1.48-.27,.14-1.5-.96,.02-.32Z"/><path class="cls-1" d="M32.43,38.86c.84-.11,1.6-.74,2.26,.17-.85,1.01-1.36,.78-2.26-.17Z"/><path class="cls-1" d="M37.85,37.15c-.59,.76-1.11,.91-1.6,.53-.52-.41-.11-.85,.11-1.02,.69-.54,.96,.33,1.49,.49Z"/><path class="cls-1" d="M44.1,33.64c-.71,.79-1.39,1-1.96-.05,.67,0,1.26-.77,1.96,.05Z"/><path class="cls-1" d="M46.02,54.86l.86,.9c-.25,.18-.49,.44-.77,.54-.38,.13-.67-.09-.6-.51,.04-.25,.25-.48,.51-.93Z"/><path class="cls-1" d="M34.35,54.9c.27,.39,.51,.59,.55,.83,.07,.36-.1,.71-.54,.56-.3-.1-.55-.37-.83-.56l.82-.84Z"/><path class="cls-1" d="M28.99,33.48c-.41,.16-.77,.37-1.15,.42-.22,.03-.47-.18-.7-.28,.12-.16,.22-.35,.37-.47,.58-.47,1.04-.3,1.49,.34Z"/><path class="cls-1" d="M36.28,38.2c-.93,.79-1.12,.81-1.69,.2,.75-.8,1.11-.85,1.69-.2Z"/><path class="cls-1" d="M44.02,33.08c.71-.71,1-1.1,1.56-.4-.35,.72-.97,.89-1.56,.4Z"/><path class="cls-1" d="M25.72,42.69l1.38,.87-1.38,.77v-1.64Z"/><path class="cls-1" d="M27.19,34.21c-.46,.23-.61,1.05-1.3,.55-.11-.08-.13-.52-.03-.62,.38-.36,.83-.65,1.33,.07Z"/><path class="cls-1" d="M38.15,27.23c.62-.77,.86-.81,1.52-.17l-1.52,.17Z"/><path d="M49.4,37.51c0,.62-.77,1.33-1.43,1.31-.69-.02-1.49-1.03-1.47-1.86,.01-.56,.78-1.28,1.38-1.29,.69,0,1.52,.99,1.52,1.84Zm-2.65-.72c-.03,.8,.7,1.79,1.16,1.72,.19-.03,.44-.35,.46-.55,.06-.58-.62-1.53-1.07-1.5-.23,.02-.44,.26-.56,.34Zm2.12,1.18c.36-.48,.25-1.14-.29-1.68-.36-.36-.52-.38-.82-.15l1.11,1.84Z"/><path d="M42.17,63.74l5.08-2.94,.13,.23-5.09,2.93-.13-.22Z"/><path d="M32.88,73.86c.02,.97-.61,1.84-1.19,1.88-.51,.03-.58-.32-.59-.7-.01-.7,.69-1.66,1.25-1.62,.23,.02,.43,.35,.53,.44Z"/><path d="M29.13,71.27l5.27-3.04,.13,.22-5.26,3.05-.13-.23Z"/><path d="M33.13,71.53l-.78,1.45-.23-.12c-.14-.68,.25-1.1,.73-1.48l.28,.14Z"/><path d="M27.03,62.94c-.25-1.09,.11-2.1,1.12-2.87,1.16-.88,2.43-1.36,3.9-1.1,.94,.17,1.31,.7,1.24,1.67-.01,.2,0,.4,.03,.59,.12,.71,.33,1.41,.36,2.12,.07,1.62-.45,2.41-2.05,2.67-1.01,.17-2.14,.09-3.13-.19-1.17-.33-1.61-.94-1.47-2.14,.02-.2,0-.41,0-.76Zm1.99,.25c1.17,0,2.85-.75,3.5-1.72,.28-.42,.52-1.06,.41-1.5-.17-.66-.92-.88-1.56-.84-1.32,.08-2.52,.53-3.45,1.53-.47,.51-.82,1.1-.51,1.79,.3,.67,.96,.75,1.62,.74Zm-1.69,.13c-.17,.9,.02,1.51,.69,1.96,1.23,.83,3.34,.83,4.63-.03,.7-.47,.84-.96,.51-1.83-1.92,1.13-3.84,1.07-5.83-.1Zm1.38,.2c.25,.14,.4,.28,.58,.31,1.23,.22,2.44,.13,3.47-.63,.31-.23,.43-.74,.57-1.14,.04-.13-.14-.34-.22-.51-.16,.08-.33,.15-.48,.25-.74,.45-1.46,.97-2.23,1.35-.47,.23-1.04,.25-1.68,.38Z"/><path d="M26.93,47.81c0-.48-.04-.97,0-1.45,.09-.84,.51-1.17,1.38-1.19,.94-.02,1.45,.29,1.52,1.12,.09,.96,.1,1.93,0,2.89-.03,.3-.44,.69-.76,.8-1.42,.49-2.21-.09-2.19-1.56,0-.2,0-.41,0-.61h.02Zm.27-1.21c0,.68,0,1.45,0,2.22,.01,.64,.48,1.04,1.21,1.06,.79,.01,1.18-.32,1.19-1.03,.01-.81,0-1.62,0-2.38l-2.41,.13Zm1.23-1.39l-.95,.68c.29,.16,.59,.47,.87,.45,.33-.02,.65-.32,.97-.5l-.89-.64Z"/><path d="M33.35,49.82c0,.3-.03,.61,0,.91,.12,1.17-.49,1.33-1.42,1.4-1.13,.08-1.63-.41-1.61-1.41,.01-.83,.02-1.67,.14-2.49,.12-.84,.64-1.15,1.53-1.09,.87,.06,1.3,.46,1.36,1.32,.03,.45,0,.91,0,1.37Zm-2.56-1.27c-.04,.78-.13,1.59-.12,2.4,0,.83,.7,.84,1.27,.86,.57,.01,1.17-.06,1.18-.86,0-.84,0-1.68,0-2.52l-2.33,.12Zm1.02-.07l.97-.65c-.26-.15-.53-.44-.77-.42-.36,.03-.71,.28-1.06,.43l.86,.63Z"/><path d="M40.59,40.7l-2.12,1.41,.04,.21h3.56l.17,.23c-.18,.35-.28,.83-.56,1.02-.73,.47-1.51,.96-2.34,1.16-1.63,.4-3.28,.32-4.83-.42-.42-.2-.83-.5-1.15-.85-.56-.62-.52-1.49,.1-2.05,.42-.38,.92-.76,1.45-.94,1.7-.57,3.43-.61,5.16-.06,.16,.05,.3,.16,.52,.29Zm-3,1.95l-.1-.29,2.32-1.54c-1.92-.67-3.74-.66-5.45,.27-1.47,.8-1.47,2.05,.03,2.79,2.18,1.08,4.4,1.06,6.55-.11,.35-.19,.6-.58,.9-.88l-.13-.25h-4.12Z"/><path d="M40.23,52.43c.51,.04,.96,.08,.95,.79-.01,.65-.36,.91-.93,.95-.62,.04-1.03-.36-1.04-.93,0-.72,.51-.77,1.02-.81Zm-.03,.98l.55-.46c-.16-.09-.33-.25-.49-.24-.21,.02-.41,.18-.61,.28l.55,.42Z"/><path class="cls-1" d="M46.75,36.8c.12-.08,.33-.32,.56-.34,.44-.03,1.13,.92,1.07,1.5-.02,.21-.28,.52-.46,.55-.46,.08-1.19-.92-1.16-1.72Z"/><path class="cls-1" d="M48.86,37.98l-1.11-1.84c.3-.22,.46-.21,.82,.15,.54,.54,.65,1.2,.29,1.68Z"/><path class="cls-1" d="M29.02,63.18c-.66,0-1.32-.07-1.62-.74-.31-.69,.04-1.28,.51-1.79,.93-1,2.13-1.45,3.45-1.53,.65-.04,1.39,.18,1.56,.84,.12,.44-.13,1.08-.41,1.5-.65,.97-2.33,1.73-3.5,1.72Z"/><path class="cls-1" d="M27.33,63.31c1.99,1.17,3.92,1.23,5.83,.1,.33,.88,.19,1.37-.51,1.83-1.29,.86-3.4,.86-4.63,.03-.67-.46-.86-1.07-.69-1.96Z"/><path class="cls-1" d="M28.71,63.51c.63-.13,1.21-.15,1.68-.38,.78-.38,1.49-.89,2.23-1.35,.15-.09,.32-.17,.48-.25,.08,.17,.27,.38,.22,.51-.14,.4-.26,.91-.57,1.14-1.03,.76-2.24,.86-3.47,.63-.18-.03-.33-.18-.58-.31Z"/><path class="cls-1" d="M27.2,46.59l2.41-.13c0,.76,0,1.57,0,2.38,0,.71-.41,1.04-1.19,1.03-.73-.01-1.2-.41-1.21-1.06-.01-.77,0-1.54,0-2.22Z"/><path class="cls-1" d="M28.43,45.21l.89,.64c-.32,.18-.64,.48-.97,.5-.28,.02-.58-.29-.87-.45l.95-.68Z"/><path class="cls-1" d="M30.8,48.55l2.33-.12c0,.84,0,1.68,0,2.52,0,.8-.61,.87-1.18,.86-.57-.01-1.26-.03-1.27-.86,0-.81,.08-1.62,.12-2.4Z"/><path class="cls-1" d="M31.82,48.48l-.86-.63c.35-.15,.7-.4,1.06-.43,.24-.02,.51,.27,.77,.42l-.97,.65Z"/><path class="cls-1" d="M37.59,42.65h4.12l.13,.25c-.3,.3-.55,.68-.9,.88-2.16,1.17-4.38,1.19-6.55,.11-1.5-.74-1.5-1.99-.03-2.79,1.71-.93,3.52-.94,5.45-.27l-2.32,1.54,.1,.29Zm-.11,1.39l.59-.54c-.2-.12-.41-.33-.6-.32-.21,.01-.41,.24-.61,.37l.62,.5Zm-2.19-2.5c.31,.52,.71,.47,1.12,.29,.09-.04,.1-.24,.15-.36-.35-.04-.7-.09-1.05-.11-.05,0-.11,.09-.21,.19Z"/><path class="cls-1" d="M40.2,53.41l-.55-.42c.2-.1,.4-.26,.61-.28,.15-.01,.32,.15,.49,.24l-.55,.46Z"/><path d="M37.48,44.04l-.62-.5c.2-.13,.4-.35,.61-.37,.19-.01,.4,.21,.6,.32l-.59,.54Z"/><path d="M35.29,41.54c.11-.1,.16-.19,.21-.19,.35,.03,.7,.07,1.05,.11-.05,.13-.06,.33-.15,.36-.41,.18-.81,.23-1.12-.29Z"/></g></g></svg>