<?xml version="1.0" encoding="UTF-8"?><svg id="Capa_2" xmlns="http://www.w3.org/2000/svg" viewBox="0 0 1087.39 900.45"><g id="Capa_1-2"><path d="M42.77,175.89H0l.55-37.22,42.21-23.89v-30.54C42.77,18.15,83.86-5.17,186.06,.93V63.7c-57.21-4.99-67.76,10-67.76,28.88v21.66h67.76v61.66H118.3v222.71H42.77V175.89Z"/><path d="M196.59,256.42c0-71.09,23.33-146.62,138.3-146.62,108.3,0,140.52,86.64,132.18,176.62h-192.72c2.22,40.54,27.77,57.76,61.09,57.76s48.32-14.99,51.65-31.66h80.54c-5,47.76-37.77,90.52-129.41,90.52-116.64,0-141.63-73.31-141.63-146.62Zm192.17-28.33c-1.11-36.65-17.22-58.87-57.76-58.87-38.33,0-54.98,22.21-56.65,58.87h114.41Z"/><path d="M500.37,256.42c0-71.09,23.33-146.62,138.3-146.62,108.3,0,140.52,86.64,132.18,176.62h-192.72c2.22,40.54,27.77,57.76,61.09,57.76s48.32-14.99,51.65-31.66h80.54c-5,47.76-37.77,90.52-129.41,90.52-116.64,0-141.63-73.31-141.63-146.62Zm192.17-28.33c-1.11-36.65-17.22-58.87-57.76-58.87-38.33,0-54.98,22.21-56.65,58.87h114.41Z"/><path d="M805.81,256.42c0-75.53,30.55-146.62,120.52-146.62,48.32,0,73.31,18.33,84.98,35.55V5.94h76.09V398.6h-32.21l-17.21-45.54c-18.33,28.33-46.66,49.99-109.97,49.99-89.42,0-122.19-71.64-122.19-146.62Zm143.85,83.32c53.32,0,63.32-33.33,63.32-83.32,0-47.21-8.33-82.2-62.76-82.2s-66.65,33.32-66.65,82.2,13.89,83.32,66.09,83.32Z"/><path d="M32.43,473.53h48.45l25.44,68.96c17.25-34.47,57.47-75.53,137.11-75.53,55.83,0,94.42,21.35,116.6,62.4,13.95-25.45,47.62-62.4,124.78-62.4,114.94,0,139.58,82.93,139.58,176.52v250.4h-114.12v-257.8c0-40.22-9.02-73.89-61.56-73.89s-63.22,32.84-63.22,73.89v257.8h-114.12v-257.8c0-40.22-9.04-73.89-61.58-73.89s-64.85,34.49-64.85,75.53v256.16H32.43V473.53Z"/><path d="M1081.44,632.43c-30.49,5.59-60.22-13.05-66.96-42.55-1.14-5.01-1.49-10-1.23-14.89-17.55-6.43-31.52-21-35.87-40.06-3.83-16.78,.8-33.33,10.86-45.99-26.74-14.01-59.66-21.98-99.57-21.98-169.94,0-204.43,111.65-204.43,216.74s36.95,216.74,209.36,216.74c135.47,0,183.91-63.22,191.29-133.82h-119.03c-4.93,24.64-25.45,46.8-76.36,46.8s-87.02-25.45-90.31-85.38h284.89c3.03-32.79,2.41-65.27-2.63-95.62Zm-282.26,9.4c2.46-54.18,27.09-87.02,83.74-87.02,59.93,0,83.74,32.84,85.38,87.02h-169.12Z"/></g></svg>