<?xml version="1.0" encoding="UTF-8"?><svg id="Capa_2" xmlns="http://www.w3.org/2000/svg" viewBox="0 0 90.79 19.91"><g id="Capa_1-2"><path d="M2.11,8.68H0l.03-1.84,2.08-1.18v-1.51C2.11,.9,4.14-.25,9.18,.05V3.14c-2.82-.25-3.34,.49-3.34,1.42v1.07h3.34v3.04h-3.34v10.98H2.11V8.68Z"/><path d="M9.7,12.65c0-3.51,1.15-7.23,6.82-7.23,5.34,0,6.93,4.27,6.52,8.71H13.53c.11,2,1.37,2.85,3.01,2.85s2.38-.74,2.55-1.56h3.97c-.25,2.36-1.86,4.47-6.38,4.47-5.75,0-6.99-3.62-6.99-7.23Zm9.48-1.4c-.05-1.81-.85-2.9-2.85-2.9-1.89,0-2.71,1.1-2.79,2.9h5.64Z"/><path d="M24.68,12.65c0-3.51,1.15-7.23,6.82-7.23,5.34,0,6.93,4.27,6.52,8.71h-9.51c.11,2,1.37,2.85,3.01,2.85s2.38-.74,2.55-1.56h3.97c-.25,2.36-1.86,4.47-6.38,4.47-5.75,0-6.99-3.62-6.99-7.23Zm9.48-1.4c-.05-1.81-.85-2.9-2.85-2.9-1.89,0-2.71,1.1-2.79,2.9h5.64Z"/><path d="M39.75,12.65c0-3.73,1.51-7.23,5.94-7.23,2.38,0,3.62,.9,4.19,1.75V.29h3.75V19.66h-1.59l-.85-2.25c-.9,1.4-2.3,2.47-5.42,2.47-4.41,0-6.03-3.53-6.03-7.23Zm7.1,4.11c2.63,0,3.12-1.64,3.12-4.11,0-2.33-.41-4.05-3.1-4.05s-3.29,1.64-3.29,4.05,.68,4.11,3.26,4.11Z"/><path d="M55.64,5.66h1.62l.85,2.3c.58-1.15,1.92-2.52,4.57-2.52,1.86,0,3.15,.71,3.89,2.08,.47-.85,1.59-2.08,4.16-2.08,3.84,0,4.66,2.77,4.66,5.89v8.36h-3.81V11.09c0-1.34-.3-2.47-2.05-2.47s-2.11,1.1-2.11,2.47v8.6h-3.81V11.09c0-1.34-.3-2.47-2.05-2.47s-2.16,1.15-2.16,2.52v8.55h-3.75V5.66Z"/><path d="M90.64,10.96c-1.02,.19-2.01-.44-2.23-1.42-.04-.17-.05-.33-.04-.5-.59-.21-1.05-.7-1.2-1.34-.13-.56,.03-1.11,.36-1.53-.89-.47-1.99-.73-3.32-.73-5.67,0-6.82,3.73-6.82,7.23s1.23,7.23,6.99,7.23c4.52,0,6.14-2.11,6.38-4.47h-3.97c-.16,.82-.85,1.56-2.55,1.56s-2.9-.85-3.01-2.85h9.51c.1-1.09,.08-2.18-.09-3.19Zm-9.42,.31c.08-1.81,.9-2.9,2.79-2.9,2,0,2.79,1.1,2.85,2.9h-5.64Z"/></g></svg>