<?xml version="1.0" encoding="UTF-8"?><svg id="Capa_2" xmlns="http://www.w3.org/2000/svg" viewBox="0 0 82.75 88.39"><defs><style>.cls-1{fill:#fff;}</style></defs><g id="Capa_1-2"><path d="M51.01,8.81c3.48,.35,7.12,.5,10.31,2.49,.82,.51,1.34-.11,1.46-.6,.29-1.2,1.07-2.01,1.94-2.68,3.08-2.39,6.21-4.73,9.37-7.03,1.49-1.08,3.23-1.14,4.97-.8,1.15,.23,1.91,1,2.36,2.08,.3,.73,.2,1.43-.45,1.87-.73,.5-1.52,.93-2.34,1.27-4,1.64-7.43,4.16-10.78,6.83-.48,.38-1.12,.65-1.73,.75-1.03,.17-1.49,.93-1.01,1.84,.81,1.55,1.21,3.17,1.11,4.96-.14,2.54-.18,5.11-.02,7.65,.13,2.1-.65,3.79-1.88,5.28-3.14,3.81-7.14,6.29-12.12,6.64-4.94,.34-9.77-.16-13.62-3.86-1.75-1.69-2.89-3.68-3.09-6.15-.19-2.41-.37-4.82-.6-7.23-.06-.69-.36-1.35-.41-2.03-.15-2.18,.76-3.99,2.14-5.6,3.02-3.53,7.12-4.76,11.5-5.36,.92-.13,1.84-.2,2.88-.31Zm-2.42,17.6l.04,.28c4.07-.66,8.17-1.2,12.21-2.01,2.23-.45,2.87-3.19,1.25-4.76-.6-.58-1.34-1.15-2.12-1.4-1.57-.5-3.19-.99-4.81-1.09-2.49-.17-5.01-.09-7.51,.02-3.45,.15-6.35,1.65-8.9,3.91-.67,.6-.71,1.26-.05,1.77,.98,.76,2,1.52,3.11,2.04,2.13,.99,4.45,1.23,6.78,1.25Zm14.87-5.91l.24-.09c.07-.38,.16-.75,.19-1.13,.21-2.83-2.44-6.08-5.8-7.22-2.79-.95-5.61-1.47-8.53-1.55-.2,0-.56-.02-.57-.06-.08-.85-.71-.48-1.08-.43-2.38,.29-4.66,.97-6.8,2.04-.92,.46-1.73,1.15-2.59,1.73l.16,.22c.63-.41,1.25-.84,1.89-1.23,.28-.17,.61-.36,.91-.36,1.07,0,2.15,0,3.21,.16,3.01,.45,5.82,1.46,8.39,3.14,.69,.45,1.51,.77,2.31,.93,3.01,.61,6.16,.85,8.06,3.85Zm-1.04,4.17c-.54,.31-.96,.69-1.43,.79-1.97,.41-3.95,.8-5.94,1.08-3.4,.47-6.79,1.14-10.25,.49-3.43-.64-6.33-2.1-8.18-5.19-.79-1.31-1.02-2.71-.42-4.18,.07-.17,.09-.36,.13-.54-.64,.96-.93,2.01-.75,3.13,.31,1.9,1.5,3.32,2.83,4.55,2.12,1.95,4.87,2.48,7.6,2.79,3.28,.37,6.53-.21,9.76-.76,1.97-.33,3.93-.69,5.89-1.04,.08,.16,.14,.12,.17,.06,.19-.38,.38-.76,.59-1.19Zm-.36-11.41c2.61,2.56,3.46,5.51,2,8.98,2.07-2.85,1.11-7.1-2-8.98Zm-8.43-3.49l-.05,.21,5.01,1.23,.06-.25-5.02-1.19Z"/><path d="M10.03,23.68c.79-1.42,1.56-1.45,2.75-.08,.22,.25,.59,.39,.92,.53,.99,.42,2.05,.71,2.97,1.24,3.1,1.81,5.12,4.52,6.38,7.85,.31,.83,.75,1.62,1.18,2.4,1.02,1.84,.58,4.19-1.12,5.44-.53,.39-.56,.7-.28,1.23,1.12,2.15,.44,2.26,3.19,1.34,4.04-1.36,7.98-1.13,11.53,1.23,4.1,2.72,5.14,5.69,3.52,11.14-.28,.95-.66,1.87-1.03,2.79-.22,.55-.43,1.13-.79,1.6-2.65,3.45-5.83,6.13-10.27,6.93-2.21,.4-4.43,.97-6.68,.23-.71-.23-1.39-.52-2.21-.83-.03,.48-.05,.81-.06,1.13-.16,3.34-.34,6.67-.48,10.01-.02,.55,.09,1.12,.21,1.66,.27,1.19,.11,1.72-1.06,2.06-1.49,.43-3.02,.71-4.55,.99-1.75,.33-3.54,.48-5.26,.91-1.1,.28-2.12,.9-3.17,1.4-1.42,.68-1.63,.65-2.48-.69-.35-.56-.57-1.19-.91-1.76-.4-.67-.79-1.38-1.33-1.94-.5-.52-.54-.98-.33-1.61,.19-.59,.37-1.21,.37-1.82,.02-4.67-.09-9.34-.7-13.98-.05-.39-.22-.76-.32-1.14-.16-.62,.14-.96,.74-1.03,1.57-.2,3.13-.43,4.71-.55,1.51-.12,3.04-.12,4.55-.17,.23,0,.46,.02,.69,0,1.94-.14,1.89-.14,1.79-2.05-.13-2.5,.69-4.75,1.95-6.87,1.19-2,2.96-3.38,4.89-4.56,.64-.39,.73-.72,.37-1.34-.33-.57-.57-1.19-.82-1.8-.42-1.04-.69-1.12-1.72-.6-2.04,1.02-4.07,2.06-6.15,3-2.03,.91-3.93,.61-5.62-.88-.2-.18-.52-.32-.79-.33-.89-.03-1.55-.45-1.93-1.19-.55-1.05-1.09-2.12-1.47-3.24-.38-1.09-.38-2.27,.27-3.27,1.57-2.41,2.27-5.12,2.94-7.85,.45-1.82,1.74-2.99,3.14-4.08,.43-.33,.76-.8,1.21-1.09,.33-.21,.77-.24,1.25-.38Zm2.26,14.16l-.02-.02c-.91,.64-1.81,1.29-2.74,1.92-1.47,.99-2.96,1.97-4.42,2.94,.85,2.62,3.47,3.14,5.33,2.41,2.05-.8,4.05-1.76,6.1-2.66-1.05-1.34-1.18-1.94-.35-2.6,2.2-1.76,4.54-3.21,7.87-2.16-.32-.8-.56-1.46-.85-2.09-.19-.42-.54-.78-.66-1.21-.84-3.02-2.4-5.56-4.89-7.51-1.27-1-2.41-.9-3.56,.31l1.19,1.62-.19,.21c-.76-1.35-1.83-2.16-3.38-2.18-.12,0-.24-.12-.37-.15-.56-.14-1.15-.42-1.68-.35-.76,.1-1.49,.47-2.23,.71-1.26,.39-1.88,1.26-2.29,2.5-.86,2.56-1.81,5.09-2.85,7.58-.8,1.92-.22,5.09,1.15,6.1,1.01-.68,1.94-1.3,2.87-1.93,.63-.43,1.28-.84,1.85-1.34,.22-.19,.41-.67,.33-.91-.31-.85-.75-1.65-1.12-2.43-1.14,.7-2.19,1.4-3.28,1.99-.28,.15-.89,.13-1.05-.07-.21-.26-.28-.82-.15-1.14,.52-1.24,1.15-2.43,1.74-3.64l.16,.05-1.45,4.19c.81-.19,1.4-.39,1.63-1.26,.68-2.57,1.23-5.2,2.71-7.49,.11-.17,.04-.46,.05-.7-.24,.02-.57-.06-.72,.07-.27,.24-.45,.59-.66,.9l-.22-.23c.12-.96,.68-1.56,1.44-1.5,.85,.07,1.15,.71,1.11,1.39-.11,1.71-.13,3.47-.57,5.11-.43,1.6-.16,2.93,.57,4.27,.29,.54,.68,.72,1.3,.37,.74-.42,1.55-.72,2.32-1.08Zm-7.93,46.2c-.2-5.2-.4-10.4-.59-15.54-.72,.45-1.02,.36-1.42-.56-.25-.57-.47-1.16-.71-1.75,.12,3.21,.29,6.38,.33,9.54,.02,1.29-.22,2.58-.34,3.85,.55,.99,1.13,2.08,1.77,3.14,.28,.46,.65,.87,.99,1.3,.29,.04,.62,.2,.86,.11,1.26-.48,2.45-1.22,3.75-1.51,2.92-.67,5.9-1.1,8.84-1.68,.59-.12,1.21-.33,1.13-1.23-.09-1-.16-2.04-.03-3.03,.61-4.46,.2-8.92,.14-13.38,0-.28-.05-.56-.09-.96-.62,.29-1.11,.53-1.61,.77-.81,.39-1.6,1.02-2.45,1.12-2.79,.33-5.6,.46-8.39,.7-1.77,.15-1.77,.17-1.73,1.99,0,.13,0,.26,0,.4,.07,4.56,.13,9.13,.21,13.69,.02,1.07,.07,2.13-.66,3.03ZM25.45,46.65c.86,.91,1.58,1.72,2.36,2.48,.82,.8,1.35,1.69,1.48,2.88,.06,.6,.51,1.22,.93,1.69,.15,.17,.76-.08,1.16-.13,.16-.02,.34,.03,.49,0,.61-.16,1.22-.34,1.77-.5-.05,1.01-.17,1.17-1.71,1.06-1.11-.08-1.65,.33-1.89,1.39-.22,.99-.22,2.12-1.31,2.72-.17,.09-.29,.39-.31,.61-.05,.82-.52,.76-1.16,.73-1.06-.05-2.14-.02-3.18,.15-.44,.07-.83,.57-1.19,.93-.19,.19-.28,.48-.42,.72l-.22-.08,.59-2.03h2.42c-1.54-.28-2.4-1.19-2.8-2.62-.08-.28-.22-.56-.38-.8-.41-.61-.99-.59-1.42,0-.11,.15-.24,.29-.35,.43-1.2-.94-2.45-1.06-3.09-.15-.52,.74-.83,1.63-1.12,2.5-.08,.23,.19,.75,.43,.88,.5,.28,1.09,.52,1.65,.56,1.36,.1,1.96,.64,1.91,1.94-.05,1.4-.02,1.45,1.37,1.55,3.99,.27,7.57-.98,10.93-2.98,2.26-1.35,4.34-2.94,5.57-5.37,.26-.52,.61-1.13,.54-1.65-.13-1.06-.47-2.11-.81-3.13-.45-1.34-1.75-1.67-2.85-.79-.25,.2-.59,.29-.88,.44-.08-.32-.24-.64-.23-.96,0-.7-.2-1.22-.86-1.52-.62-.28-1.21-.53-1.81,.08-.22,.22-.58,.3-.87,.46-.58,.32-.93,.72-.58,1.44,.09,.18,.04,.42,.06,.79-1.1-.93-1.02-2.04,.01-2.62,.37-.21,.8-.33,1.14-.58,.96-.68,1.73-.69,2.62,.11,.37,.33,.64,.75,1.01,1.08,.18,.17,.5,.35,.7,.3,1.78-.4,2.67-.05,3.62,1.48,.1,.17,.25,.31,.39,.47,.5-.76-.81-1.76,.47-2.27-2.48-4.51-9.92-5.69-15.1-2.94,.55,.11,.87,.26,1.16,.21,.81-.15,1.59-.41,2.4-.57,2.43-.49,4.87-.5,7.24,.31,.69,.23,1.3,.7,1.94,1.06l-.13,.44c-3.89-1.92-7.76-1.47-11.71-.21ZM4.46,64.32c1.63-.29,3.31-.64,5-.89,1.5-.22,3.02-.33,4.52-.51,1.67-.2,3.32-.46,4.7-1.63-.92-.38-1.76-.75-2.61-1.06-.19-.07-.44,.04-.67,.07-1.92,.28-3.84,.65-5.77,.83-2.9,.27-5.82,.4-8.82,.6l3.65,2.6Zm15.79-15.05c-.92,.87-1.68,1.59-2.44,2.29-.68,.64-1.64,1.2-.57,2.33l-.89-.37c-1.15,.91-.65,2.38-1.18,3.49-.15,.31,.07,.8,.13,1.21l.33,.13c.7-2.44,1.85-4.11,4.69-2.97,.14-.11,.3-.34,.5-.38,.96-.22,.6-.8,.44-1.37-.27-.96-.52-1.94-.76-2.91-.1-.4-.14-.81-.24-1.46Zm.13,14.98c8.41,2.2,18.89-4.61,19.65-12.58-1.07,4.67-3.92,7.59-7.68,9.8-3.7,2.17-7.65,3.26-11.97,2.78Zm-.13,1.13v.31c.24,.06,.48,.14,.73,.18,3.27,.55,6.42-.14,9.42-1.3,1.76-.67,3.36-1.81,4.93-2.88,2.49-1.7,4.32-3.98,5.32-6.85,.17-.5,.12-1.08,.18-1.63-1.28,4.49-4.36,7.45-8.12,9.78-3.81,2.35-8.03,2.9-12.45,2.39Zm-.08-17.95c-4.43,2.04-8.3,9.61-6.12,12.29,0-.62-.01-1.07,0-1.52,.03-.75-.04-1.53,.14-2.24,.8-3.16,3-5.29,5.48-7.17,.48-.36,.79-.69,.49-1.36ZM7.65,26.11c1.54,.07,3.1,.15,4.67,.21,1.12,.05,2.23,.03,3.13-.84-1.81-1.42-6.51-.97-7.8,.62Zm-1.73,9.97l.31,.1c1.21-1.13,1.89-3.56,1.27-5.19l-1.58,5.1Zm15.47,9.18c.66-.23,.94-.45,.57-1.05-.31-.5-.49-1.09-.8-1.6-.12-.2-.42-.28-.64-.41-.07,.25-.26,.55-.18,.74,.29,.76,.67,1.5,1.05,2.32Zm2.31-6.53c-1.53-1.2-3.57-.63-5.6,.81,1.86-.76,3.64-1.37,5.6-.81Zm4.91,16.37c.36-1.61,.09-2.28-.99-2.52-.22,1.07,.74,1.66,.99,2.52Zm-7.16-8.04l-.31,.13,.15,1.12,1.69,.53-1.53-1.78Zm2.82-.02l-.28,.26c.04,.92,.63,1.27,1.58,1.28l-1.29-1.54Z"/><path d="M52.44,52.8c-1.79-.5-1.64-.5-1.64-2.35,0-1.77,.72-2.73,2.38-3.11,.22-.05,.43-.18,.64-.26,.87-.32,1.73-.69,2.62-.92,.56-.14,1.23-.24,1.76-.06,3.43,1.16,6.87,.68,10.31,.15,1.21-.18,2.4-.49,3.59-.77,2.49-.58,3.7,.49,3.64,3.02-.05,1.88,.14,3.76,.21,5.64,.02,.5,.11,1.01,0,1.48-.55,2.45-.28,4.94-.4,7.41-.05,1.08-.38,2.14-.49,3.21-.11,1.08-.33,2.22-.11,3.25,.22,1.07-.07,1.78-.73,2.49-.25,.27-.58,.5-.73,.81-1.41,3.05-4.06,2.22-6.48,2.1-1.25-.07-2.5-.26-3.74-.26-3.05,.01-6.09,.21-9.13,.12-1.17-.03-2.35-.55-3.48-.99-.31-.12-.6-.72-.61-1.11,0-.85,.19-1.71,.28-2.56,.1-.88,.27-1.77,.24-2.65-.1-3.01-.31-6.01-.4-9.02-.02-.52,.26-1.07,.48-1.58,.56-1.33,1.17-2.65,1.8-4.05Zm21.13-3.12c-.17,.21-.46,.44-.57,.73-.58,1.54-2.18,1.54-3.32,2.17-.77,.42-1.75,.48-2.65,.63-.55,.1-1.11,.08-1.67,.12l-.03-.27,1.32-.43c-1.63-.47-3.01-1.08-4.42-1.21-1.83-.17-3.7,.13-5.55,.06-1.37-.05-2.49,.42-3.42,1.27-.43,.39-.54,1.14-.75,1.74-.43,1.28-1.1,2.56-1.16,3.87-.11,2.54,.17,5.09,.21,7.63,.02,1.54-.08,3.08-.16,4.62-.03,.63-.18,1.25-.19,1.88,0,.24,.17,.65,.36,.72,1.77,.67,3.57,.52,5.38,.12l-1.98-.22,.08-.5c.81,.15,1.61,.34,2.42,.43,.54,.06,1.1,.03,1.63-.06,.16-.02,.27-.36,.4-.55l.42,.76h2.61l-.15-.77c1.86-.09,3.63-.08,5.45,.86,.41-.18,1.05-.42,1.32,.6l.98-.54-.71-.61h1.26c.9-2.06-.08-3.78-.91-5.6,.97-.18,.94-.88,.92-1.65-.04-2.09-.01-4.18-.01-6.27,1.13,3.36,1.39,6.77,.89,10.24l.84-4.57c1.66-.88,2.14-2.5,1.99-4.46-.07-.85,.02-1.71,.07-2.56,.08-1.28,.23-2.56,.26-3.84,.02-.89-.19-1.78-.17-2.67,.02-.75,.06-1.41-.98-1.65Zm-12.73-.96c-1.78,.39-2.79-.03-3.24-1.2l2.41,.46,.07-.46c-1.1-.12-2.26-.5-3.3-.29-1.5,.3-2.94,.99-4.38,1.57-1.15,.46-.34,1.46-.44,2.19-.02,.11,.77,.44,1.19,.46,.31,.01,.64-.32,.96-.49l-.07-.12-1.38,.12c.24-.35,.5-.5,.78-.55,1.59-.27,3.19-.51,4.78-.76,.87-.14,1.76-.49,2.61-.41,1.5,.13,3,.4,4.44,.82,1.59,.46,3.14,.39,4.71,.03,.5-.11,1.09-.29,1.41-.65,.75-.83,1.36-1.79,2.18-2.91-1.56,.33-2.94,.62-4.31,.93-.13,.03-.24,.21-.33,.34-.57,.81-2.92,1.62-3.82,1.3-.12-.04-.19-.21-.38-.44l1.69-.57-5.47-.43,2.73,.74c-.23,.81-.97,.99-1.68,.51-.48-.33-1.09-.48-1.65-.69-.04-.02-.13,.1-.26,.21l.75,.27Zm-.03,1.88v-.2h-5.56v.2h5.56Zm9.72-.22l-3.53,.95c1.2-.03,2.43,.44,3.53-.95Zm2.92,19.93c-.27-.07-.67-.25-.72-.18-.3,.46-.53,.96-.79,1.45l.34,.2,1.16-1.47Z"/><path class="cls-1" d="M48.59,26.41c-2.33-.02-4.65-.26-6.78-1.25-1.11-.52-2.13-1.28-3.11-2.04-.66-.51-.62-1.17,.05-1.77,2.55-2.26,5.45-3.76,8.9-3.91,2.5-.11,5.02-.19,7.51-.02,1.62,.11,3.25,.59,4.81,1.09,.78,.25,1.52,.82,2.12,1.4,1.62,1.57,.98,4.31-1.25,4.76-4.04,.82-8.14,1.36-12.21,2.01l-.04-.28Z"/><path class="cls-1" d="M63.46,20.49c-1.89-3-5.05-3.24-8.06-3.85-.8-.16-1.63-.49-2.31-.93-2.57-1.67-5.38-2.69-8.39-3.14-1.06-.16-2.14-.16-3.21-.16-.3,0-.63,.19-.91,.36-.64,.39-1.26,.82-1.89,1.23l-.16-.22c.86-.59,1.67-1.28,2.59-1.73,2.14-1.06,4.42-1.74,6.8-2.04,.37-.04,.99-.42,1.08,.43,0,.04,.37,.05,.57,.06,2.92,.08,5.74,.6,8.53,1.55,3.37,1.15,6.01,4.39,5.8,7.22-.03,.38-.13,.75-.19,1.13l-.24,.09Zm-3.46-4.15c.34-.59,.73-.98,.65-1.19-.17-.42-.59-.74-.91-1.1-.25,.29-.75,.64-.7,.85,.11,.44,.51,.8,.96,1.44Z"/><path class="cls-1" d="M62.42,24.67c-.21,.43-.4,.81-.59,1.19-.03,.06-.09,.1-.17-.06-1.96,.35-3.93,.71-5.89,1.04-3.23,.55-6.48,1.13-9.76,.76-2.73-.31-5.48-.84-7.6-2.79-1.34-1.23-2.53-2.65-2.83-4.55-.18-1.12,.12-2.17,.75-3.13-.04,.18-.06,.37-.13,.54-.6,1.47-.36,2.87,.42,4.18,1.85,3.09,4.75,4.55,8.18,5.19,3.47,.65,6.86-.02,10.25-.49,1.99-.28,3.97-.66,5.94-1.08,.48-.1,.89-.49,1.43-.79Z"/><path class="cls-1" d="M62.06,13.26c3.11,1.88,4.07,6.13,2,8.98,1.46-3.47,.61-6.42-2-8.98Z"/><path class="cls-1" d="M53.63,9.77l5.02,1.19-.06,.25-5.01-1.23,.05-.21Z"/><path class="cls-1" d="M4.37,84.04c.73-.9,.68-1.96,.66-3.03-.08-4.56-.14-9.13-.21-13.69,0-.13,0-.26,0-.4-.04-1.83-.05-1.84,1.73-1.99,2.8-.23,5.61-.36,8.39-.7,.85-.1,1.63-.73,2.45-1.12,.5-.24,.99-.48,1.61-.77,.04,.4,.09,.68,.09,.96,.06,4.46,.47,8.92-.14,13.38-.13,.99-.06,2.02,.03,3.03,.08,.9-.54,1.11-1.13,1.23-2.94,.58-5.92,1.02-8.84,1.68-1.3,.29-2.49,1.03-3.75,1.51-.24,.09-.57-.07-.86-.11l-.03,.02Zm8.88-11.84l.82,.78,.22-1.97-.16-.02-.38,.82-.85-.34-.6,.91-.08-1.6h-.15l-.36,1.4-1-.43-.71,.66-.75-.52-1.65,.94-.17-.61-.32,.24v1.1c.88-.07,1.72-.14,2.55-.2,.05,0,.11,.08,.17,.1,.67,.31,.94,.1,.84-.63-.02-.17,.07-.35,.14-.64,.48,.36,.86,.86,1.25,.88,.35,.01,.72-.51,1.19-.88Zm2.55-1.58l-.34,.03-.48,1.72,1.78,.18-.95-1.93Z"/><path class="cls-1" d="M12.29,37.84c-.78,.35-1.58,.66-2.32,1.08-.62,.35-1,.17-1.3-.37-.73-1.35-1-2.68-.57-4.27,.44-1.64,.46-3.4,.57-5.11,.04-.69-.26-1.33-1.11-1.39-.76-.06-1.33,.55-1.44,1.5l.22,.23c.22-.31,.39-.66,.66-.9,.15-.13,.47-.05,.72-.07-.01,.24,.06,.53-.05,.7-1.48,2.29-2.03,4.92-2.71,7.49-.23,.87-.82,1.07-1.63,1.26l1.45-4.19-.16-.05c-.59,1.21-1.22,2.41-1.74,3.64-.13,.32-.07,.88,.15,1.14,.16,.19,.77,.22,1.05,.07,1.1-.59,2.14-1.28,3.28-1.99,.37,.78,.81,1.58,1.12,2.43,.09,.24-.11,.72-.33,.91-.57,.5-1.22,.91-1.85,1.34-.93,.63-1.87,1.26-2.87,1.93-1.36-1.01-1.95-4.18-1.15-6.1,1.04-2.49,1.99-5.02,2.85-7.58,.41-1.24,1.03-2.11,2.29-2.5,.75-.23,1.47-.61,2.23-.71,.54-.07,1.12,.21,1.68,.35,.13,.03,.24,.15,.37,.15,1.55,.02,2.62,.83,3.38,2.18l.19-.21-1.19-1.62c1.15-1.21,2.29-1.31,3.56-.31,2.49,1.95,4.05,4.49,4.89,7.51,.12,.43,.47,.79,.66,1.21,.29,.63,.52,1.28,.85,2.09-3.33-1.05-5.67,.4-7.87,2.16-.83,.66-.69,1.26,.35,2.6-2.05,.9-4.05,1.86-6.1,2.66-1.86,.73-4.48,.21-5.33-2.41,1.47-.97,2.95-1.95,4.42-2.94,.92-.62,1.83-1.28,2.74-1.91,.74-.26,1.51-.46,2.23-.78,2.1-.93,4.08-2.2,6.5-2.18,.36,0,.71-.16,1.07-.25l-.05-.25c-.83,0-1.69-.14-2.48,.04-.89,.2-1.25-.1-1.54-.85-.21-.54-.54-1.03-.82-1.54l-.31,.16c.2,.43,.38,.87,.59,1.3,.43,.88,.32,1.43-.69,1.9-1.55,.72-3,1.64-4.49,2.48Zm-4.4,5.77c3.13-1.89,6.18-3.73,9.24-5.58-1.85-.24-8.68,3.81-9.24,5.58Z"/><path class="cls-1" d="M25.45,46.65c3.94-1.26,7.82-1.71,11.71,.21l.13-.44c-.65-.36-1.25-.83-1.94-1.06-2.37-.81-4.8-.8-7.24-.31-.81,.16-1.59,.42-2.4,.57-.29,.05-.61-.1-1.16-.21,5.18-2.75,12.61-1.57,15.1,2.94-1.28,.52,.03,1.51-.47,2.27-.14-.16-.29-.3-.39-.47-.95-1.53-1.84-1.88-3.62-1.48-.21,.05-.52-.14-.7-.3-.36-.33-.64-.76-1.01-1.08-.9-.79-1.67-.79-2.62-.11-.34,.24-.77,.37-1.14,.58-1.03,.58-1.11,1.69-.01,2.62-.02-.37,.03-.62-.06-.79-.36-.72,0-1.12,.58-1.44,.29-.16,.64-.24,.87-.46,.6-.61,1.19-.36,1.81-.08,.66,.3,.87,.82,.86,1.52,0,.32,.15,.64,.23,.96,.3-.14,.63-.24,.88-.44,1.1-.88,2.4-.55,2.85,.79,.34,1.02,.68,2.07,.81,3.13,.07,.52-.28,1.13-.54,1.65-1.23,2.43-3.3,4.03-5.57,5.37-3.36,2-6.94,3.25-10.93,2.98-1.39-.09-1.42-.15-1.37-1.55,.04-1.3-.55-1.85-1.91-1.94-.57-.04-1.15-.27-1.65-.56-.25-.14-.51-.65-.43-.88,.29-.86,.61-1.76,1.12-2.5,.64-.91,1.89-.8,3.09,.15,.12-.14,.24-.28,.35-.43,.44-.6,1.01-.61,1.42,0,.16,.24,.3,.52,.38,.8,.4,1.43,1.25,2.34,2.8,2.62h-2.42l-.59,2.03,.22,.08c.14-.24,.22-.53,.42-.72,.36-.36,.75-.86,1.19-.93,1.04-.17,2.12-.2,3.18-.15,.64,.03,1.11,.09,1.16-.73,.01-.21,.14-.51,.31-.61,1.09-.6,1.08-1.74,1.31-2.72,.24-1.06,.78-1.47,1.89-1.39,1.54,.11,1.66-.05,1.71-1.06-.56,.16-1.16,.34-1.77,.5-.16,.04-.33,0-.49,0-.4,.05-1.01,.3-1.16,.13-.42-.47-.87-1.09-.93-1.69-.13-1.19-.65-2.08-1.48-2.88-.78-.76-1.5-1.57-2.36-2.48Zm10.56,.59l.18,.95c.48-.56,1.41,.31,1.61-.7l-1.79-.25Z"/><path class="cls-1" d="M4.46,64.32l-3.65-2.6c3-.2,5.92-.33,8.82-.6,1.93-.18,3.85-.55,5.77-.83,.22-.03,.48-.14,.67-.07,.86,.32,1.7,.68,2.61,1.06-1.38,1.18-3.03,1.44-4.7,1.63-1.51,.18-3.02,.29-4.52,.51-1.69,.25-3.37,.6-5,.89Z"/><path class="cls-1" d="M4.39,84.02c-.33-.43-.71-.84-.99-1.3-.63-1.06-1.21-2.15-1.77-3.14,.12-1.27,.36-2.56,.34-3.85-.05-3.16-.21-6.33-.33-9.54,.24,.59,.46,1.18,.71,1.75,.4,.92,.7,1.01,1.42,.56,.2,5.14,.4,10.34,.59,15.54l.03-.02Z"/><path class="cls-1" d="M20.25,49.27c.11,.65,.15,1.06,.24,1.46,.24,.97,.48,1.95,.76,2.91,.16,.57,.53,1.15-.44,1.37-.2,.04-.35,.27-.5,.38-2.85-1.14-4,.53-4.69,2.97l-.33-.13c-.05-.41-.27-.9-.13-1.21,.53-1.11,.03-2.58,1.18-3.49l.89,.37c-1.06-1.13-.11-1.69,.57-2.33,.76-.71,1.52-1.42,2.44-2.29Z"/><path class="cls-1" d="M20.38,64.25c4.32,.47,8.27-.61,11.97-2.78,3.76-2.21,6.61-5.13,7.68-9.8-.76,7.97-11.24,14.78-19.65,12.58Z"/><path class="cls-1" d="M20.25,65.39c4.41,.5,8.64-.04,12.45-2.39,3.77-2.33,6.84-5.28,8.12-9.78-.05,.54,0,1.12-.18,1.63-1,2.88-2.83,5.15-5.32,6.85-1.57,1.08-3.17,2.21-4.93,2.88-3,1.15-6.15,1.85-9.42,1.3-.25-.04-.49-.12-.73-.18v-.31Z"/><path class="cls-1" d="M20.17,47.44c.3,.67-.02,1-.49,1.36-2.48,1.88-4.68,4.01-5.48,7.17-.18,.71-.11,1.49-.14,2.24-.02,.45,0,.9,0,1.52-2.18-2.68,1.69-10.26,6.12-12.29Z"/><path class="cls-1" d="M21.4,45.26c-.38-.82-.76-1.55-1.05-2.32-.07-.2,.12-.49,.18-.74,.22,.13,.53,.22,.64,.41,.31,.51,.49,1.09,.8,1.6,.37,.6,.09,.82-.57,1.05Z"/><path class="cls-1" d="M23.71,38.73c-1.96-.55-3.74,.06-5.6,.81,2.03-1.45,4.07-2.02,5.6-.81Z"/><path class="cls-1" d="M28.62,55.1c-.25-.86-1.21-1.45-.99-2.52,1.08,.24,1.35,.91,.99,2.52Z"/><path class="cls-1" d="M21.46,47.07l1.53,1.78-1.69-.53-.15-1.12,.31-.13Z"/><path class="cls-1" d="M24.28,47.05l1.29,1.54c-.94,0-1.54-.36-1.58-1.28l.28-.26Z"/><path class="cls-1" d="M73.58,49.68c1.04,.24,1,.9,.98,1.65-.02,.89,.19,1.78,.17,2.67-.03,1.28-.18,2.56-.26,3.84-.05,.85-.14,1.71-.07,2.56,.16,1.97-.33,3.58-1.99,4.46l-.84,4.57c.5-3.46,.25-6.88-.89-10.24,0,2.09-.02,4.18,.01,6.27,.01,.77,.04,1.48-.92,1.65,.83,1.82,1.81,3.54,.91,5.6h-1.26l.71,.61-.98,.54c-.27-1.03-.91-.79-1.32-.6-1.82-.94-3.58-.95-5.45-.86l.15,.77h-2.61l-.42-.76c-.13,.19-.24,.53-.4,.55-.53,.08-1.09,.12-1.63,.06-.81-.09-1.61-.28-2.42-.43l-.08,.5,1.98,.22c-1.81,.4-3.61,.54-5.38-.12-.19-.07-.36-.47-.36-.72,.01-.63,.16-1.25,.19-1.88,.08-1.54,.18-3.08,.16-4.62-.04-2.55-.32-5.1-.21-7.63,.06-1.3,.73-2.58,1.16-3.87,.2-.6,.32-1.35,.75-1.74,.93-.85,2.06-1.32,3.42-1.27,1.85,.07,3.72-.23,5.55-.06,1.42,.13,2.79,.74,4.42,1.21l-1.32,.43,.03,.27c.56-.03,1.13-.02,1.67-.12,.9-.16,1.88-.21,2.65-.63,1.15-.63,2.75-.63,3.32-2.17,.11-.29,.4-.52,.57-.73Zm-11.43,11.26h-.35l-.3-1.56-1.39,1.6-.81-1.33c-.08,.75-.2,1.52,.74,1.76,.71,.18,1.45,.2,2.2,.29q.67-1.27,2.04-.37c.37-.89-.53-4.39-1.5-5.19l-.64,4.8Zm-4.49,10.02l.03-.41c-.71-1.13-1.7-1.91-3.03-2.12-.43-.07-.92,.22-1.38,.34,.37,.25,.73,.5,1.1,.75,.04,.03,.06,.1,.15,.25h-1.14l-.1,.25c.76,.4,1.48,.97,2.28,1.16,.64,.16,1.39-.14,2.09-.23Zm10.99-13.26h-.31c-.07,.16-.14,.33-.2,.5-.11,.35-.21,.7-.32,1.06-.37-.19-.84-.31-1.08-.6-.23-.28-.21-.76-.31-1.15-.1-.4-.2-.8-.35-1.17-.01-.04-.49,0-.57,.12-.28,.41-.67,.88-.65,1.32,.02,.73,.31,1.46,.5,2.18,.07,.29,.17,.57,.26,.86l.26-.03,.1-2.1c.74,.6,1.23,1.02,1.74,1.42,.61,.48,1.03,.36,1.07-.38,.04-.67-.09-1.35-.15-2.02Zm-11.85,1.83c0,.83-.06,1.46,.03,2.07,.04,.3,.36,.56,.55,.84,.21-.22,.53-.4,.62-.66,.27-.78,.5-1.57,.65-2.38,.06-.32-.12-.69-.2-1.04l-.17,.05-.61,2.24-.28-.02-.6-1.1Zm3.97-6.91l-.13,.35c.67,.3,1.31,.69,2.01,.87,.44,.11,.96-.05,1.44-.15,.13-.03,.3-.3,.28-.45-.01-.14-.23-.37-.37-.38-1.07-.11-2.15-.17-3.23-.24Zm-1.71,4.3l-.1-.46-4.96,1.1,.08,.33c1.7-.13,3.47,.02,4.99-.97Zm-2.86,5.24c-.97,.18-1.61,.27-2.23,.44-.26,.07-.46,.33-.68,.5,.27,.11,.62,.4,.8,.31,.66-.31,1.27-.74,2.11-1.25Zm2.73,9.05l-.18,.4,2.64,1.11,.15-.33c-.52-1.14-1.85-.54-2.61-1.18Zm3.46,.47l.25-.57-2-.81-.2,.45,1.96,.93Zm4.89-7.81l-2.29-1.69c.34,1.11,1.17,1.74,2.29,1.69Zm-.68,8.4l.13-.56-1.63-.28-.09,.46,1.59,.37Zm-1.98-5.05l-.06-.34-1.93,.32,.04,.28,1.95-.26Z"/><path class="cls-1" d="M60.84,48.73l-.75-.27c.13-.11,.22-.23,.26-.21,.56,.21,1.16,.36,1.65,.69,.71,.48,1.44,.3,1.68-.51l-2.73-.74,5.47,.43-1.69,.57c.19,.22,.26,.39,.38,.44,.9,.32,3.25-.49,3.82-1.3,.09-.13,.2-.31,.33-.34,1.37-.31,2.74-.6,4.31-.93-.82,1.12-1.43,2.08-2.18,2.91-.32,.36-.91,.54-1.41,.65-1.56,.35-3.11,.43-4.71-.03-1.44-.42-2.95-.69-4.44-.82-.85-.07-1.74,.27-2.61,.41-1.59,.26-3.19,.5-4.78,.76-.28,.05-.54,.2-.78,.55l1.38-.12,.07,.12c-.32,.18-.65,.5-.96,.49-.42-.02-1.2-.35-1.19-.46,.11-.74-.71-1.73,.44-2.19,1.44-.58,2.87-1.28,4.38-1.57,1.04-.21,2.2,.17,3.3,.29l-.07,.46-2.41-.46c.45,1.17,1.46,1.59,3.24,1.2Z"/><path class="cls-1" d="M47.83,76.94h-5.56v-.2h5.55v.2Z"/><path class="cls-1" d="M70.53,50.39c-1.1,1.39-2.33,.92-3.53,.95l3.53-.95Z"/><path class="cls-1" d="M73.45,70.32l-1.16,1.47-.34-.2c.25-.49,.48-1,.79-1.45,.04-.06,.44,.11,.72,.18Z"/><path class="cls-1" d="M21.99,83.45l.56-.44c.13,.31,.18,.61-.16,.75-.23,.1-.39-.06-.39-.33h-.01Z"/><path class="cls-1" d="M82.75,86.78c-.26,.52-.47,1.07-.8,1.55-.08,.12-.73,.08-.77-.03-.18-.44-.23-.94-.31-1.31l1.58-.35,.3,.14Z"/><path class="cls-1" d="M32.36,57.13c0-1.29,.35-1.68,1.75-1.53l-1.49,1.79-.26-.25Z"/><path class="cls-1" d="M31.35,46.84c.03-.23-.01-.5,.1-.68,.14-.22,.37-.45,.61-.52,.1-.03,.36,.31,.47,.53,.09,.2,.14,.47,.08,.67-.15,.46-.38,.89-.57,1.33l-.87-1.2,.19-.15Z"/><path d="M60,16.34c-.45-.64-.85-1-.96-1.44-.05-.21,.45-.56,.7-.85,.32,.36,.74,.68,.91,1.1,.08,.21-.31,.6-.65,1.19Z"/><path d="M7.89,43.61c.56-1.77,7.39-5.82,9.24-5.58-3.06,1.85-6.11,3.69-9.24,5.58Z"/><path d="M57.65,70.97c-.7,.09-1.45,.38-2.09,.23-.81-.2-1.53-.76-2.28-1.16l.1-.25h1.14c-.08-.15-.1-.22-.15-.25-.36-.25-.73-.5-1.1-.75,.46-.12,.95-.41,1.38-.34,1.33,.21,2.32,.99,3.03,2.12l-.03,.41Z"/><path d="M60.76,52.63c1.08,.08,2.15,.14,3.23,.24,.14,.01,.36,.24,.37,.38,.01,.15-.15,.42-.28,.45-.47,.1-1,.27-1.44,.15-.7-.18-1.34-.57-2.01-.87l.13-.35Z"/><path d="M56.19,62.17c-.84,.51-1.45,.94-2.11,1.25-.18,.08-.53-.2-.8-.31,.23-.17,.43-.43,.68-.5,.62-.17,1.26-.25,2.23-.44Z"/><path d="M58.92,71.22c.76,.64,2.09,.04,2.61,1.18l-.15,.33-2.64-1.11,.18-.4Z"/><path d="M62.38,71.7l-1.96-.93,.2-.45,2,.81-.25,.57Z"/><path d="M67.27,63.88c-1.12,.04-1.95-.58-2.29-1.69l2.29,1.69Z"/><path d="M66.59,72.28l-1.59-.37,.09-.46,1.63,.28-.13,.56Z"/><path d="M64.61,67.23l-1.95,.26-.04-.28,1.93-.32,.06,.34Z"/></g></svg>